<?xml version="1.0" standalone="no"?>
<!DOCTYPE svg PUBLIC "-//W3C//DTD SVG 20010904//EN"
 "http://www.w3.org/TR/2001/REC-SVG-20010904/DTD/svg10.dtd">
<svg version="1.0" xmlns="http://www.w3.org/2000/svg"
 width="592.000000pt" height="422.000000pt" viewBox="0 0 592.000000 422.000000"
 preserveAspectRatio="xMidYMid meet">

<g transform="translate(0.000000,422.000000) scale(0.100000,-0.100000)"
fill="#000000" stroke="none">
<path d="M1253 3936 c-22 -34 -76 -66 -112 -66 -12 0 -49 -11 -84 -25 -61 -25
-106 -65 -107 -96 0 -9 -15 -22 -32 -29 -18 -7 -54 -27 -80 -44 -40 -26 -48
-36 -48 -61 0 -17 5 -36 11 -42 6 -6 16 -22 23 -34 6 -13 25 -30 41 -38 17 -8
38 -18 47 -23 24 -11 28 -10 28 6 0 8 14 19 32 25 29 10 35 9 56 -13 27 -26
21 -51 -10 -43 -11 3 -21 0 -24 -7 -4 -10 -30 -12 -107 -9 -82 4 -106 8 -123
24 -11 10 -27 19 -35 19 -8 0 -20 5 -27 12 -22 22 -24 -1 -3 -28 56 -71 119
-90 194 -59 56 23 68 20 61 -15 -4 -17 -2 -30 3 -30 5 0 16 -18 23 -40 10 -32
16 -38 27 -29 7 6 13 27 13 45 0 29 4 34 23 34 12 0 40 9 62 20 57 29 80 26
95 -11 17 -39 5 -62 -36 -70 -24 -5 -26 -7 -11 -14 10 -4 33 -5 52 -2 19 3 35
3 35 -1 0 -4 -18 -31 -40 -61 -22 -29 -40 -62 -40 -74 0 -17 5 -15 35 16 50
52 76 49 35 -3 -11 -14 -20 -29 -20 -33 0 -14 21 4 31 26 5 12 25 44 44 71 35
49 39 81 5 39 -10 -13 -23 -23 -29 -23 -17 0 -22 18 -8 32 22 21 37 55 29 63
-4 3 -7 10 -7 13 0 4 -7 27 -14 50 -12 34 -12 48 -3 63 7 10 12 28 12 39 0 21
-1 21 -49 -7 -2 -2 2 -10 10 -19 12 -15 12 -16 -8 -10 -16 5 -23 2 -28 -14 -4
-13 -15 -20 -31 -20 -27 0 -33 24 -9 34 8 3 15 13 15 23 0 10 12 40 26 67 17
31 22 52 16 58 -6 6 -15 3 -23 -9 -8 -11 -27 -19 -46 -19 -18 -1 -50 -2 -70
-3 l-38 -1 52 -31 c45 -26 51 -34 49 -57 -2 -15 -4 -35 -5 -44 -1 -12 -9 -18
-24 -18 -14 0 -43 -18 -71 -46 -43 -41 -50 -44 -63 -31 -20 19 -11 33 36 57
21 10 41 26 44 35 4 8 19 15 34 15 27 1 27 1 8 15 -11 8 -27 20 -35 27 -46 41
-47 41 -96 14 -60 -33 -75 -33 -114 4 -26 24 -30 34 -21 43 9 9 16 9 30 0 23
-14 35 -5 20 14 -6 7 -24 13 -40 13 -15 0 -31 5 -34 11 -11 17 19 42 103 84
64 31 80 44 80 62 0 27 15 42 73 71 45 22 109 30 109 14 0 -5 19 -8 43 -8 38
1 42 -1 40 -21 -3 -25 7 -29 25 -11 25 25 24 -4 -1 -30 -27 -28 -35 -52 -18
-52 5 0 12 9 16 19 5 15 86 67 90 58 1 -1 14 -17 29 -36 27 -34 28 -35 7 -43
-13 -4 -21 -16 -21 -31 0 -13 -5 -28 -12 -35 -9 -9 -4 -12 23 -12 25 0 30 3
19 10 -8 5 -12 11 -9 14 3 3 15 -1 27 -10 25 -17 31 -49 7 -40 -22 8 -18 -3 8
-25 30 -25 50 -25 42 1 -5 16 -2 20 17 20 16 0 19 -3 10 -9 -10 -6 -11 -13 -1
-34 13 -30 32 -37 22 -9 -3 9 -3 14 2 10 7 -7 35 14 35 26 0 3 -9 6 -19 6 -21
0 -36 27 -18 33 8 2 6 9 -6 21 -9 10 -15 22 -11 27 7 13 92 -35 120 -67 28
-33 88 -43 114 -19 31 28 26 46 -8 34 -31 -11 -82 2 -82 21 0 6 -5 8 -11 4 -6
-3 -31 4 -55 16 -33 18 -44 29 -44 47 0 14 6 23 15 23 8 0 15 -7 15 -15 0 -8
5 -15 11 -15 5 0 7 5 4 10 -4 6 5 20 19 31 14 11 26 27 26 35 0 17 -2 17 -33
3 -19 -9 -38 -7 -87 8 -67 19 -84 40 -69 80 8 22 6 22 -54 20 -39 -2 -72 -9
-89 -21 -26 -17 -28 -17 -45 0 -17 17 -17 17 -1 11 19 -7 31 21 25 55 -5 29
-11 28 -34 -6z m-8 -76 c-3 -5 -11 -10 -16 -10 -6 0 -7 5 -4 10 3 6 11 10 16
10 6 0 7 -4 4 -10z m293 -131 c-2 -6 -8 -10 -13 -10 -5 0 -11 4 -13 10 -2 6 4
11 13 11 9 0 15 -5 13 -11z m-70 -21 c10 -10 15 -10 22 2 8 12 10 11 10 -6 0
-18 -5 -20 -27 -17 -44 7 -55 12 -48 23 8 14 28 13 43 -2z m21 -44 c21 -15 22
-18 7 -26 -19 -11 -46 6 -46 28 0 18 10 18 39 -2z m-339 -100 c0 -8 -4 -12
-10 -9 -5 3 -10 10 -10 16 0 5 5 9 10 9 6 0 10 -7 10 -16z m82 -236 c-9 -9
-12 -7 -12 12 0 19 3 21 12 12 9 -9 9 -15 0 -24z m8 -92 c0 -15 -18 -31 -26
-23 -7 7 7 37 17 37 5 0 9 -6 9 -14z"/>
<path d="M1460 3661 c0 -5 7 -12 16 -15 14 -5 15 -4 4 9 -14 17 -20 19 -20 6z"/>
<path d="M4234 3956 c-4 -9 -4 -32 -1 -51 5 -32 4 -35 -21 -36 -24 -2 -24 -2
-4 -6 36 -7 26 -19 -39 -43 -50 -19 -66 -21 -95 -12 -30 9 -34 8 -34 -9 0 -10
9 -24 20 -31 11 -7 20 -18 20 -25 0 -7 5 -13 10 -13 6 0 10 7 10 16 0 20 24
13 28 -8 3 -18 -83 -81 -102 -75 -6 2 -17 -3 -25 -11 -10 -10 -28 -13 -58 -9
-49 5 -59 -12 -20 -37 17 -12 31 -13 62 -6 59 14 65 13 61 -12 -1 -13 -9 -23
-17 -23 -29 -1 -99 -49 -99 -67 0 -11 4 -16 10 -13 6 4 7 -1 4 -12 -5 -16 -4
-16 10 1 11 14 13 23 5 32 -11 14 4 29 20 20 5 -3 14 1 21 9 13 16 40 20 40 7
0 -5 -14 -21 -31 -38 -17 -16 -37 -41 -45 -56 -17 -32 -39 -38 -31 -8 3 10 -1
27 -7 36 -11 15 -14 13 -25 -15 -8 -17 -15 -31 -18 -31 -2 0 -17 9 -32 21 -16
12 -39 21 -52 21 -88 -1 -270 -11 -300 -16 -31 -7 -37 -13 -48 -52 -15 -49
-35 -57 -64 -24 -9 11 -15 21 -12 21 3 1 9 2 15 3 10 1 45 46 35 46 -3 0 -14
-6 -25 -12 -16 -10 -24 -10 -38 0 -9 7 -25 15 -34 18 -12 4 -18 17 -18 35 0
37 -13 43 -36 16 -16 -19 -17 -20 -1 -8 24 19 29 10 13 -21 -13 -25 -13 -26
18 -32 37 -8 80 -36 54 -36 -9 0 -18 -5 -20 -11 -2 -7 -12 -7 -33 1 -25 10
-31 8 -45 -10 -15 -20 -18 -20 -30 -6 -11 14 -10 16 6 10 19 -7 19 -6 0 12
-12 12 -20 15 -23 8 -3 -8 -15 -9 -42 -2 -32 8 -52 6 -112 -15 -67 -22 -182
-37 -166 -21 3 4 0 13 -8 21 -17 17 -19 46 -5 73 5 10 7 26 4 34 -10 27 -37
-9 -30 -39 4 -15 2 -25 -5 -25 -6 0 -13 9 -16 20 -3 11 -9 20 -14 20 -12 0
-11 -5 6 -47 21 -50 19 -63 -10 -63 -14 0 -25 6 -25 13 0 7 -10 18 -21 25 -20
13 -21 12 -15 -12 7 -30 -13 -36 -34 -11 -7 8 -19 15 -26 15 -8 0 -14 3 -14 8
0 4 -36 7 -81 7 -76 0 -82 -2 -101 -28 -20 -27 -42 -29 -32 -3 3 8 0 17 -5 21
-6 3 -9 11 -6 16 4 5 1 9 -5 9 -6 0 -10 -8 -8 -17 2 -13 -6 -17 -37 -19 -23
-2 -43 2 -47 9 -5 8 -8 7 -8 -4 0 -28 -58 -11 -75 21 -13 25 -21 29 -71 32
-31 1 -61 0 -67 -4 -8 -5 -7 -8 4 -8 23 0 63 -46 56 -64 -13 -34 -77 -3 -77
37 0 37 -27 47 -130 46 -65 -1 -98 -5 -93 -12 4 -6 36 -8 87 -4 58 4 86 2 98
-7 10 -7 15 -16 11 -20 -4 -4 -1 -11 6 -16 8 -4 11 -15 7 -25 -5 -15 -13 -16
-49 -10 -71 12 -120 13 -172 3 -36 -8 -50 -7 -53 1 -2 6 -10 11 -18 11 -23 0
-16 36 11 50 14 7 23 15 20 18 -2 3 -16 -3 -31 -13 -26 -17 -27 -17 -49 11
-18 23 -23 25 -28 11 -4 -10 -4 -24 -1 -32 4 -8 1 -15 -5 -15 -6 0 -11 3 -11
8 0 4 -21 31 -46 60 -26 30 -40 52 -31 52 7 0 22 -9 32 -20 14 -16 21 -18 28
-8 6 10 7 8 4 -4 -3 -9 1 -24 10 -35 13 -16 14 -16 9 0 -3 9 -1 17 5 17 6 0 6
7 -1 19 -11 22 -68 53 -81 45 -5 -3 -13 5 -18 18 -8 20 -10 21 -16 6 -9 -22
-25 -24 -25 -3 0 8 -4 15 -10 15 -22 0 -9 -38 15 -44 14 -4 25 -13 25 -21 0
-8 11 -22 25 -31 14 -9 25 -23 25 -32 0 -25 54 -131 68 -131 6 -1 12 -6 12
-12 0 -5 -5 -7 -10 -4 -15 9 -12 -12 4 -27 8 -8 16 -23 20 -34 3 -10 3 -2 0
19 -5 41 -3 44 20 22 12 -12 20 -13 35 -5 18 9 20 7 19 -30 0 -22 -4 -40 -9
-40 -5 0 -6 -12 -3 -26 5 -19 4 -25 -5 -20 -6 4 -11 14 -11 22 0 18 -5 18 -35
-2 -15 -10 -25 -12 -25 -5 0 6 5 11 10 11 6 0 10 7 10 15 0 8 -4 15 -9 15 -5
0 -12 8 -14 18 -2 9 -3 4 -2 -11 1 -20 -2 -26 -12 -23 -7 3 -13 4 -13 3 0 -11
42 -87 51 -92 6 -4 7 -19 4 -36 -6 -25 -3 -30 19 -39 14 -5 26 -15 27 -22 7
-82 5 -217 -2 -212 -5 3 -9 -9 -9 -25 0 -17 -4 -31 -10 -31 -5 0 -10 6 -10 14
0 7 -3 28 -7 46 -5 28 -4 32 11 27 15 -6 15 -4 2 21 -7 15 -11 33 -9 40 3 6
-2 12 -11 12 -9 0 -16 -7 -16 -15 0 -8 -3 -15 -8 -15 -9 0 -6 186 3 200 4 6
-1 10 -9 10 -10 0 -13 6 -10 18 5 14 4 15 -5 2 -12 -17 -15 -50 -3 -50 4 0 8
-34 10 -75 4 -77 -1 -91 -19 -52 -8 18 -8 15 -4 -14 l5 -36 -37 2 c-21 2 -51
8 -66 14 -16 6 -34 11 -40 11 -14 -1 109 -60 124 -60 5 0 9 -7 9 -16 0 -15 -3
-14 -27 2 -22 14 -25 14 -15 2 11 -14 10 -17 -5 -20 -13 -3 -6 -10 26 -27 24
-13 66 -44 93 -71 40 -39 48 -53 48 -84 0 -39 -13 -47 -29 -18 -6 9 -11 12
-11 7 0 -6 5 -16 12 -23 9 -9 9 -12 -3 -12 -10 -1 -8 -5 6 -16 17 -12 18 -16
5 -24 -8 -5 -17 -7 -21 -4 -14 8 -20 -16 -21 -78 -1 -52 -3 -58 -11 -38 -9 22
-11 23 -14 6 -3 -10 0 -38 7 -61 21 -75 -5 -157 -45 -141 -14 5 -14 9 0 35 17
34 20 75 5 66 -5 -3 -10 -16 -10 -29 0 -12 -11 -33 -24 -45 -22 -21 -25 -21
-40 -5 -13 12 -14 19 -5 30 6 8 17 14 24 14 12 0 25 30 25 60 0 9 -5 7 -16 -8
-22 -32 -54 -47 -65 -31 -6 11 -9 10 -14 -4 -5 -11 3 -30 22 -53 26 -32 35
-37 85 -40 70 -6 77 3 81 108 4 72 31 168 48 168 5 0 9 -81 9 -180 l0 -180
-40 -25 c-43 -27 -64 -57 -57 -83 3 -12 5 -10 6 6 1 25 45 72 67 72 18 0 18
-24 1 -42 -28 -28 -70 -89 -65 -94 3 -2 17 11 32 31 33 42 55 47 48 8 -3 -14
-20 -40 -39 -56 -18 -16 -31 -32 -28 -35 3 -3 16 5 30 18 29 27 40 22 31 -14
-4 -17 -20 -32 -46 -45 l-40 -19 0 34 c0 19 -4 34 -9 34 -4 0 -7 -13 -5 -28 4
-36 -60 -121 -92 -122 -12 0 -27 -7 -34 -15 -7 -8 -21 -15 -31 -15 -10 0 -21
-4 -24 -10 -3 -5 -17 -10 -30 -10 -15 0 -26 -7 -30 -19 -9 -30 -62 -44 -96
-27 -32 16 -34 14 -19 -15 16 -29 71 -25 127 10 27 16 62 33 78 37 17 4 48 18
70 32 21 14 50 28 64 31 17 5 28 17 33 37 5 21 19 35 43 47 20 9 39 17 43 17
4 0 6 -89 4 -197 -2 -109 0 -213 3 -232 11 -61 150 -188 274 -250 37 -19 101
-38 168 -51 201 -38 218 -42 323 -77 116 -39 153 -56 178 -81 10 -9 29 -24 43
-33 22 -15 27 -15 44 -2 34 26 136 69 230 98 152 45 187 54 276 70 237 42 365
122 430 271 17 37 19 66 18 216 -1 257 0 288 11 288 6 0 28 -11 50 -25 27 -17
40 -33 42 -52 2 -19 10 -29 23 -31 20 -3 92 -35 217 -97 75 -37 110 -36 136 3
14 22 14 22 -18 9 -41 -18 -77 -10 -97 20 -9 13 -22 22 -28 19 -7 -2 -22 2
-34 10 -12 8 -25 13 -30 10 -5 -3 -14 1 -21 9 -7 8 -21 15 -32 15 -34 0 -86
64 -97 117 l-9 48 -1 -42 c0 -24 -3 -43 -6 -43 -22 0 -105 71 -105 90 0 18 39
11 50 -10 6 -11 18 -20 27 -20 12 0 3 15 -29 48 -42 44 -52 72 -25 72 7 0 24
-14 39 -32 14 -18 29 -30 32 -27 3 3 -15 29 -39 59 -41 50 -55 80 -39 80 4 0
23 -10 43 -22 26 -16 32 -18 23 -5 -8 9 -30 22 -49 29 l-36 13 7 134 c3 74 6
158 6 188 0 29 4 53 8 53 16 0 42 -107 42 -169 0 -37 6 -74 16 -93 15 -30 16
-30 72 -23 59 7 82 18 82 40 0 7 7 15 15 19 17 6 21 81 5 91 -6 4 -7 -6 -4
-25 6 -26 4 -30 -14 -30 -21 0 -52 24 -52 41 0 5 -4 9 -8 9 -5 0 -7 -14 -4
-31 3 -20 12 -33 28 -39 37 -15 31 -42 -8 -38 -29 3 -34 8 -42 41 -5 20 -14
37 -18 37 -5 0 -7 -8 -4 -17 3 -10 8 -35 12 -56 6 -36 5 -37 -17 -28 -44 16
-47 67 -12 194 3 11 -1 17 -11 17 -15 0 -19 13 -17 55 1 11 -3 27 -9 35 -8 12
-13 13 -30 3 -31 -20 -33 -16 -10 17 12 17 18 30 14 30 -3 0 -1 7 6 15 7 9 10
18 7 22 -4 3 -9 -2 -13 -11 -11 -30 -24 -16 -24 27 0 37 4 45 35 66 19 13 35
29 35 37 0 7 25 24 56 39 31 15 53 29 50 32 -3 3 -22 -4 -42 -16 -37 -22 -62
-22 -26 0 11 7 17 19 15 29 -4 14 11 24 67 46 40 15 68 30 62 32 -6 2 -25 -4
-42 -13 -18 -9 -33 -15 -35 -13 -2 2 1 24 5 50 8 41 34 88 50 88 9 0 42 -61
36 -67 -3 -3 1 -12 9 -20 10 -9 15 -35 15 -71 l0 -57 41 42 c35 35 42 49 47
92 3 36 1 51 -8 51 -7 0 -10 -7 -6 -16 10 -25 -5 -85 -21 -91 -18 -7 -36 18
-23 31 6 6 9 26 8 46 l-1 35 -4 -32 c-3 -20 -10 -33 -18 -33 -8 0 -12 6 -9 14
5 14 -29 125 -49 157 -6 10 -19 19 -28 19 -16 0 -36 47 -24 58 3 3 5 -1 5 -8
0 -7 2 -11 5 -8 9 9 -6 38 -20 38 -18 0 -5 -52 29 -114 27 -49 28 -68 2 -47
-18 15 -62 144 -69 201 -3 32 1 56 14 85 16 32 18 35 14 12 -3 -17 -2 -26 3
-23 6 3 13 22 17 43 7 40 29 78 45 78 6 0 9 2 9 5 -1 3 8 24 20 48 12 23 18
42 13 42 -5 0 -15 -12 -22 -27 -11 -25 -13 -26 -19 -9 -7 17 -8 18 -14 3 -3
-9 -2 -17 4 -17 6 0 9 -6 6 -12 -2 -7 -13 -12 -23 -10 -16 2 -17 1 -4 -7 10
-7 11 -11 2 -11 -17 0 -67 -109 -91 -197 -15 -56 -34 -68 -26 -16 3 21 8 49
11 61 3 15 1 21 -6 17 -5 -3 -10 -1 -10 4 0 6 6 11 13 11 13 0 72 118 69 137
-2 7 7 17 18 23 12 6 25 22 30 35 5 13 19 25 32 27 16 2 24 10 26 28 l2 25
-16 -22 c-20 -28 -34 -29 -34 -4 0 26 15 34 47 27 21 -6 24 -11 19 -34 -6 -26
-6 -26 7 -5 12 21 13 20 13 -20 3 -103 33 -171 118 -265 36 -40 66 -80 66 -90
-1 -15 -2 -15 -15 2 -18 24 -19 9 -1 -23 13 -23 13 -23 19 -2 8 31 22 26 64
-24 20 -25 45 -45 55 -45 10 0 18 -7 18 -17 0 -10 3 -29 6 -43 5 -22 1 -20
-30 15 -48 54 -45 41 5 -26 23 -30 39 -46 36 -37 -3 10 -2 20 3 23 6 4 9 32 9
63 -1 31 -3 49 -6 40 -6 -24 -20 -23 -35 2 -7 11 -18 20 -25 20 -19 0 -193
181 -193 201 0 10 -4 20 -9 23 -4 3 -11 19 -15 36 -6 33 -29 63 -40 53 -3 -4
-6 12 -6 35 0 22 5 44 10 47 6 3 10 14 10 23 0 13 -2 13 -14 -4 -22 -29 -29
-11 -12 29 11 27 11 37 3 41 -7 2 -2 5 11 5 19 1 22 -3 17 -19 -8 -26 12 -26
43 -1 26 22 29 33 6 24 -26 -10 -13 27 16 46 22 15 24 15 17 -1 -5 -14 -1 -18
18 -18 25 0 33 14 15 25 -5 3 -10 17 -10 29 0 15 -7 26 -20 29 -24 6 -17 33
11 42 10 4 19 13 19 21 0 8 4 14 8 14 20 0 79 -35 99 -59 22 -25 22 -25 23 -4
0 12 -11 30 -25 41 -25 20 -33 42 -16 42 5 0 14 -7 21 -15 7 -8 17 -12 22 -9
6 4 6 10 0 16 -18 18 -3 39 18 28 13 -7 21 -7 25 0 4 6 15 8 26 5 11 -4 19 -2
19 4 0 20 56 11 111 -16 41 -21 56 -35 63 -59 8 -25 24 -38 95 -75 65 -33 86
-49 86 -64 0 -15 -8 -21 -30 -23 -28 -4 -44 -16 -45 -35 0 -4 9 -2 20 5 14 9
23 9 30 2 14 -14 5 -36 -21 -53 -38 -23 -68 -22 -112 3 l-42 25 -33 -20 c-17
-12 -32 -24 -32 -29 0 -4 -10 -11 -22 -15 l-23 -8 22 -4 c12 -2 32 -15 46 -29
13 -13 38 -29 55 -35 17 -6 33 -16 35 -22 2 -7 2 -2 0 11 -3 17 1 22 20 22 13
0 32 -7 43 -15 11 -8 41 -14 73 -15 50 0 57 3 93 40 21 23 38 50 38 62 l0 21
-22 -20 c-42 -38 -81 -50 -180 -55 -79 -4 -98 -3 -98 9 0 9 -7 12 -24 7 -32
-8 -40 9 -18 36 15 18 24 21 55 15 24 -5 37 -13 37 -23 0 -12 3 -13 12 -4 7 7
20 12 30 12 35 0 69 24 93 68 14 24 25 52 25 62 0 24 -35 53 -107 89 -41 20
-63 38 -63 49 -1 9 -9 27 -19 38 -20 25 -135 74 -171 74 -30 0 -110 38 -117
56 -7 20 -43 18 -43 -3 0 -9 7 -25 17 -35 24 -27 7 -35 -31 -14 -19 10 -42 15
-57 12 -27 -7 -38 -1 -62 33 -14 22 -17 22 -23 7z m231 -66 c3 -5 -1 -10 -10
-10 -9 0 -13 5 -10 10 3 6 8 10 10 10 2 0 7 -4 10 -10z m-88 -26 c-3 -3 -12
-4 -19 -1 -8 3 -5 6 6 6 11 1 17 -2 13 -5z m-147 -78 c0 -3 -4 -8 -10 -11 -5
-3 -10 -1 -10 4 0 6 5 11 10 11 6 0 10 -2 10 -4z m-49 -47 c15 -17 21 -19 39
-9 16 8 25 9 33 1 11 -11 2 -16 -45 -24 -18 -3 -28 0 -28 8 0 7 -9 15 -20 18
-11 3 -20 10 -20 16 0 18 21 13 41 -10z m-26 -59 c-10 -11 -23 -20 -30 -20 -7
0 -20 -9 -30 -20 -10 -11 -29 -20 -43 -20 -21 0 -23 2 -11 16 15 18 98 63 118
64 11 0 10 -5 -4 -20z m79 4 c4 -12 2 -15 -9 -10 -8 3 -14 0 -12 -6 3 -15 -15
-20 -33 -8 -13 8 -12 11 5 24 26 20 41 20 49 0z m-94 -48 c0 -9 -9 -14 -20
-13 -22 1 -27 13 -7 20 21 9 27 7 27 -7z m-292 -194 c28 -16 28 -38 1 -52 -21
-12 -55 -77 -50 -95 6 -18 2 -447 -5 -541 -6 -90 -7 -91 -25 -73 -10 10 -26
19 -34 19 -15 0 -260 150 -505 309 -54 35 -253 184 -277 207 -7 7 -26 18 -43
26 -16 7 -30 16 -30 20 0 11 -32 -3 -69 -31 -19 -14 -43 -24 -54 -23 -11 2
-17 -1 -13 -7 6 -10 -154 -121 -174 -121 -4 0 -10 -4 -12 -8 -1 -4 -97 -67
-213 -139 -115 -72 -272 -170 -347 -217 -76 -47 -140 -86 -144 -86 -6 0 1 547
8 623 2 20 0 37 -4 37 -5 0 -8 10 -8 23 l0 22 538 4 c295 2 562 3 592 3 157
-3 465 1 618 6 94 4 172 4 172 0 0 -5 5 -8 10 -8 6 0 10 9 10 20 0 15 -7 20
-27 22 -58 3 -138 -5 -163 -16 -9 -3 -24 0 -34 7 -16 12 -17 15 -3 29 12 11
13 18 4 27 -8 8 -7 11 6 11 9 0 17 3 17 8 0 13 233 8 258 -6z m-300 -11 c8
-24 -27 -61 -58 -61 -37 0 -37 7 -4 47 25 31 54 37 62 14z m-1288 -23 c21 -34
18 -48 -9 -48 -10 0 -24 15 -34 35 -21 45 -21 45 3 45 12 0 28 -13 40 -32z
m1710 3 c0 -6 -13 -25 -30 -43 -16 -18 -30 -36 -30 -40 0 -5 -8 -8 -19 -8 -29
0 -32 35 -5 61 29 27 45 18 19 -11 -10 -11 -16 -22 -13 -25 2 -3 20 13 39 35
37 43 39 45 39 31z m-2250 -21 c0 -5 -2 -10 -4 -10 -3 0 -8 5 -11 10 -3 6 -1
10 4 10 6 0 11 -4 11 -10z m947 -13 c11 -11 -2 -13 -69 -15 l-83 -2 25 21 c20
17 33 20 70 15 24 -3 50 -12 57 -19z m-881 -14 c10 -16 18 -30 17 -33 0 -3 7
-10 16 -17 24 -18 7 -25 -25 -11 -25 12 -74 53 -74 63 0 2 9 1 20 -2 11 -3 20
-9 20 -14 0 -5 5 -9 12 -9 6 0 4 7 -5 18 -19 21 -22 32 -8 32 5 0 17 -12 27
-27z m1414 17 c10 -7 -10 -10 -65 -9 -54 0 -73 3 -60 9 27 12 107 12 125 0z
m110 -6 c0 -2 -7 -4 -15 -4 -8 0 -15 4 -15 10 0 5 7 7 15 4 8 -4 15 -8 15 -10z
m-860 -4 c0 -5 -4 -10 -10 -10 -5 0 -10 5 -10 10 0 6 5 10 10 10 6 0 10 -4 10
-10z m1400 -30 c0 -5 -4 -10 -10 -10 -5 0 -10 5 -10 10 0 6 5 10 10 10 6 0 10
-4 10 -10z m-2010 -4 c0 -3 -4 -8 -10 -11 -5 -3 -10 -1 -10 4 0 6 5 11 10 11
6 0 10 -2 10 -4z m2011 -71 c0 -14 2 -16 6 -5 3 8 14 23 25 34 18 20 18 19 18
-10 0 -22 3 -26 10 -14 8 12 10 11 10 -7 0 -24 -50 -85 -50 -62 -1 8 -8 2 -16
-13 -8 -16 -20 -28 -25 -28 -7 0 -5 10 5 25 20 31 20 36 -1 28 -13 -5 -15 -2
-10 11 4 10 7 34 7 54 0 28 3 33 10 22 5 -8 10 -24 11 -35z m146 -162 c3 -18
10 -33 17 -33 6 0 3 -5 -6 -11 -10 -5 -18 -21 -18 -35 0 -14 -4 -22 -10 -19
-13 8 -13 51 0 76 6 10 8 19 6 19 -10 0 -36 -59 -36 -80 0 -11 5 -20 10 -20 6
0 10 -8 10 -17 0 -9 5 -31 12 -50 12 -34 4 -58 -12 -33 -7 10 -10 11 -10 3 0
-7 -4 -13 -10 -13 -12 0 -13 27 -1 32 4 2 5 12 0 23 -7 19 -8 19 -8 -2 -1 -13
-5 -23 -9 -23 -4 0 -12 -14 -17 -32 -11 -35 -35 -50 -35 -22 0 14 -3 15 -12 6
-10 -10 -10 -14 0 -21 17 -10 9 -96 -9 -96 -10 0 -13 10 -11 34 2 22 0 31 -7
26 -14 -8 -15 40 -1 65 9 16 8 18 -7 13 -13 -5 -15 -3 -8 13 4 10 9 43 10 73
2 39 8 58 21 68 10 7 18 22 19 33 1 11 11 34 23 50 12 16 22 32 22 36 0 3 10
20 22 36 l21 31 14 -49 c8 -27 17 -64 20 -81z m-117 69 c0 -16 -27 -45 -39
-41 -8 3 -7 11 4 27 16 22 35 30 35 14z m-2062 -14 c7 -7 12 -23 12 -37 0 -21
-2 -23 -10 -11 -5 8 -10 11 -11 5 0 -5 -4 -1 -9 10 -18 41 -8 59 18 33z m-38
-18 c0 -5 -2 -10 -4 -10 -3 0 -8 5 -11 10 -3 6 -1 10 4 10 6 0 11 -4 11 -10z
m2300 -51 c17 -30 6 -34 -14 -4 -9 14 -12 25 -7 25 6 0 15 -9 21 -21z m-248
-21 c-9 -9 -12 -7 -12 12 0 19 3 21 12 12 9 -9 9 -15 0 -24z m203 -48 c-5 -8
-11 -8 -17 -2 -6 6 -7 16 -3 22 5 8 11 8 17 2 6 -6 7 -16 3 -22z m-1019 -178
c74 -48 134 -93 134 -99 0 -7 8 -13 18 -13 10 0 49 -19 87 -43 39 -23 140 -85
225 -136 85 -51 190 -116 233 -145 l77 -51 -6 -105 c-4 -58 -7 -105 -8 -106 0
-1 -127 82 -281 183 -154 101 -350 230 -435 286 -85 55 -157 104 -160 107 -29
31 -38 31 -92 -2 -29 -18 -61 -37 -70 -43 -10 -5 -79 -50 -155 -100 -300 -195
-394 -255 -533 -345 -80 -51 -155 -102 -167 -113 -13 -11 -26 -17 -30 -13 -5
4 -9 49 -11 99 l-4 92 174 113 c95 63 268 173 385 245 340 212 433 271 433
281 0 19 61 -10 186 -92z m-1239 1 c-3 -3 -11 -2 -17 2 -8 5 -7 11 2 22 12 15
13 14 16 -1 2 -10 1 -20 -1 -23z m2163 -10 c0 -8 -9 -17 -20 -20 -11 -3 -20
-12 -20 -19 0 -8 -5 -14 -11 -14 -6 0 -8 7 -5 16 3 9 6 22 6 31 0 9 6 13 15 9
9 -3 15 0 15 10 0 8 5 12 10 9 6 -3 10 -13 10 -22z m-2170 -19 c0 -8 -6 -14
-14 -14 -16 0 -39 24 -30 32 10 10 44 -4 44 -18z m-49 -10 c17 -8 29 -18 26
-20 -6 -6 -67 23 -67 31 0 8 10 6 41 -11z m59 -30 c0 -8 -4 -12 -10 -9 -5 3
-10 10 -10 16 0 5 5 9 10 9 6 0 10 -7 10 -16z m2070 -44 c0 -5 -4 -10 -10 -10
-5 0 -10 5 -10 10 0 6 5 10 10 10 6 0 10 -4 10 -10z m-2025 -10 c3 -5 2 -10
-4 -10 -5 0 -13 5 -16 10 -3 6 -2 10 4 10 5 0 13 -4 16 -10z m1992 -42 c-3 -8
-6 -5 -6 6 -1 11 2 17 5 13 3 -3 4 -12 1 -19z m-70 -24 c-7 -7 -37 7 -37 17 0
6 9 5 21 -1 11 -7 19 -14 16 -16z m-17 -68 c0 -3 -4 -8 -10 -11 -5 -3 -10 -1
-10 4 0 6 5 11 10 11 6 0 10 -2 10 -4z m-710 -266 c73 -55 230 -160 239 -160
5 0 16 -9 23 -19 8 -11 33 -27 56 -36 23 -10 42 -21 42 -25 0 -4 12 -14 28
-21 28 -14 301 -195 337 -224 17 -14 20 -30 23 -116 4 -101 4 -101 -18 -89
-24 13 -191 131 -405 285 -77 56 -174 124 -215 153 -41 28 -117 80 -169 116
-92 64 -94 64 -120 48 -94 -59 -869 -582 -924 -624 -37 -28 -70 -48 -74 -44
-3 3 -5 25 -4 48 1 24 3 67 4 96 2 53 2 54 52 83 28 16 68 39 90 50 22 12 59
37 82 56 23 18 69 51 101 71 32 20 92 59 133 86 75 49 102 68 394 265 l160
108 65 -40 c36 -23 81 -53 100 -67z m-740 15 c-7 -8 -18 -15 -24 -15 -6 0 -2
7 8 15 25 19 32 19 16 0z m1235 -55 c3 -5 1 -10 -4 -10 -6 0 -11 5 -11 10 0 6
2 10 4 10 3 0 8 -4 11 -10z m222 -146 c-7 -7 -37 7 -37 17 0 6 9 5 21 -1 11
-7 19 -14 16 -16z m-643 -402 c22 -20 54 -46 72 -57 54 -34 83 -55 244 -176
85 -64 181 -135 214 -159 l59 -43 -30 -12 c-16 -7 -36 -19 -44 -28 -24 -24
-142 -74 -191 -81 -23 -4 -61 -11 -83 -15 -22 -5 -71 -15 -110 -21 -38 -7 -74
-15 -80 -19 -5 -3 -14 -6 -20 -8 -109 -22 -258 -74 -285 -98 -22 -20 -33 -19
-54 4 -10 11 -31 23 -47 26 -16 4 -29 10 -29 15 0 5 -10 12 -22 15 -13 4 -56
23 -96 42 -84 39 -227 78 -328 88 -38 4 -91 18 -119 30 -27 13 -62 26 -76 29
-15 3 -37 14 -49 24 l-23 19 102 69 c56 38 188 129 294 201 105 73 254 175
331 227 l138 94 96 -64 c53 -36 114 -81 136 -102z m-999 -52 c-3 -5 -11 -10
-16 -10 -6 0 -7 5 -4 10 3 6 11 10 16 10 6 0 7 -4 4 -10z"/>
<path d="M3930 3116 c0 -8 -5 -16 -11 -18 -7 -2 -7 -12 0 -30 5 -14 8 -36 5
-49 l-5 -24 11 24 c6 13 8 32 5 42 -4 11 -2 19 4 19 14 0 14 37 1 45 -5 3 -10
0 -10 -9z"/>
<path d="M3880 3080 c0 -5 5 -10 10 -10 6 0 10 5 10 10 0 6 -4 10 -10 10 -5 0
-10 -4 -10 -10z"/>
<path d="M3874 3018 c-5 -7 -9 -26 -9 -43 -1 -16 -5 -39 -10 -49 -6 -14 -5
-17 3 -12 7 4 12 3 12 -3 0 -6 9 -15 19 -20 16 -9 18 -8 14 9 -3 11 -12 20
-19 20 -8 0 -14 5 -14 10 0 6 4 10 9 10 12 0 22 73 12 83 -5 5 -12 3 -17 -5z"/>
<path d="M3911 2954 c0 -11 3 -14 6 -6 3 7 2 16 -1 19 -3 4 -6 -2 -5 -13z"/>
<path d="M1235 3820 c-3 -5 -1 -10 4 -10 6 0 11 5 11 10 0 6 -2 10 -4 10 -3 0
-8 -4 -11 -10z"/>
<path d="M4496 3771 c-10 -11 -15 -25 -11 -30 9 -16 35 -13 41 4 7 16 59 21
69 6 3 -6 -3 -14 -12 -20 -13 -7 -15 -13 -7 -21 8 -8 15 -7 27 4 22 23 38 20
35 -6 -2 -13 2 -24 7 -25 6 -2 10 4 10 13 0 8 7 19 15 24 12 7 12 12 0 34 -16
31 -30 34 -23 5 5 -19 3 -20 -18 -14 -13 4 -28 12 -34 19 -5 6 -18 10 -29 8
-10 -2 -23 1 -29 7 -15 15 -21 14 -41 -8z"/>
<path d="M1166 3761 c-4 -6 -19 -11 -33 -11 -14 0 -31 -6 -37 -14 -6 -8 -20
-16 -31 -18 -15 -2 -19 2 -16 17 3 20 3 20 -18 1 -25 -23 -27 -46 -5 -46 11 0
14 -6 9 -20 -5 -14 -2 -20 10 -20 11 0 15 7 13 22 -2 11 3 23 10 25 6 3 12 0
12 -6 0 -13 37 -15 44 -2 3 5 -1 12 -10 15 -8 3 -12 10 -9 16 10 16 53 11 64
-7 9 -16 12 -16 25 -3 13 13 13 18 -3 39 -12 16 -21 20 -25 12z"/>
<path d="M4337 3753 c-9 -16 12 -53 27 -47 12 5 13 11 4 30 -11 24 -23 30 -31
17z"/>
<path d="M1318 3715 c-13 -28 -6 -40 17 -32 17 7 21 57 5 57 -6 0 -16 -11 -22
-25z"/>
<path d="M4525 3699 c-10 -14 -1 -21 19 -13 9 3 13 10 10 15 -7 12 -21 11 -29
-2z"/>
<path d="M4395 3680 c4 -6 11 -8 16 -5 14 9 11 15 -7 15 -8 0 -12 -5 -9 -10z"/>
<path d="M1136 3671 c-3 -5 1 -12 10 -15 20 -8 29 -1 19 13 -8 13 -22 14 -29
2z"/>
<path d="M1270 3660 c0 -5 7 -10 15 -10 8 0 15 5 15 10 0 6 -7 10 -15 10 -8 0
-15 -4 -15 -10z"/>
<path d="M4790 3660 c0 -5 5 -10 10 -10 6 0 10 5 10 10 0 6 -4 10 -10 10 -5 0
-10 -4 -10 -10z"/>
<path d="M4370 3649 c0 -5 5 -7 10 -4 6 3 10 8 10 11 0 2 -4 4 -10 4 -5 0 -10
-5 -10 -11z"/>
<path d="M4470 3645 c0 -6 48 -114 60 -137 13 -22 13 -48 1 -48 -21 0 -41 13
-41 27 0 11 -7 13 -25 9 -25 -6 -36 8 -12 18 8 3 7 9 -7 20 -26 21 -37 11 -24
-22 13 -32 12 -72 -2 -86 -6 -6 -10 -20 -10 -32 0 -13 -4 -26 -10 -29 -15 -10
-12 -20 15 -47 16 -16 23 -32 19 -42 -9 -22 -21 -20 -39 8 -9 13 -23 27 -31
30 -20 8 -3 -24 47 -88 22 -27 39 -53 39 -57 0 -5 5 -9 11 -9 6 0 1 16 -11 35
-12 19 -17 35 -12 35 6 0 8 10 5 21 -4 16 -2 20 8 17 8 -3 14 -14 14 -25 1
-11 8 -28 18 -37 9 -10 17 -22 17 -27 0 -5 5 -9 11 -9 19 0 0 52 -35 95 -48
59 -53 70 -30 61 34 -14 57 -16 73 -6 14 9 14 9 -1 10 -9 0 -23 7 -32 15 -9
10 -17 11 -21 5 -8 -13 -25 -3 -25 16 0 8 7 14 15 14 8 0 22 14 31 31 17 34
22 34 109 4 28 -10 56 -19 63 -21 6 -2 12 -19 12 -38 0 -19 4 -37 9 -41 11 -6
16 1 25 38 5 20 3 27 -8 27 -8 0 -17 9 -21 19 -3 11 -14 23 -24 26 -10 3 -26
14 -36 25 -10 11 -26 20 -35 20 -18 0 -30 27 -30 67 0 15 15 30 53 52 l52 31
-77 0 c-63 0 -78 3 -78 15 0 8 -7 15 -15 15 -8 0 -15 -2 -15 -5z m90 -44 c0
-12 -20 -25 -27 -18 -7 7 6 27 18 27 5 0 9 -4 9 -9z m-90 -171 c-8 -5 -17 -7
-19 -4 -3 3 1 9 9 14 8 5 17 7 19 4 3 -3 -1 -9 -9 -14z"/>
<path d="M885 3630 c-3 -5 1 -10 10 -10 9 0 13 5 10 10 -3 6 -8 10 -10 10 -2
0 -7 -4 -10 -10z"/>
<path d="M1300 3630 c0 -5 5 -10 10 -10 6 0 10 5 10 10 0 6 -4 10 -10 10 -5 0
-10 -4 -10 -10z"/>
<path d="M2866 3622 c-2 -4 4 -14 15 -20 19 -12 19 -11 9 8 -12 22 -16 24 -24
12z"/>
<path d="M4276 3621 c-4 -6 -1 -22 7 -37 13 -24 14 -25 19 -7 6 23 -17 60 -26
44z"/>
<path d="M4385 3620 c-3 -5 -1 -10 4 -10 6 0 11 5 11 10 0 6 -2 10 -4 10 -3 0
-8 -4 -11 -10z"/>
<path d="M1286 3601 c-4 -5 -2 -12 3 -15 5 -4 12 -2 15 3 4 5 2 12 -3 15 -5 4
-12 2 -15 -3z"/>
<path d="M1390 3596 c0 -8 -5 -16 -11 -18 -6 -2 -7 -11 -3 -22 6 -17 8 -16 20
5 16 29 18 49 4 49 -5 0 -10 -6 -10 -14z"/>
<path d="M1580 3600 c0 -5 12 -10 28 -9 24 0 25 1 7 9 -27 12 -35 12 -35 0z"/>
<path d="M4328 3569 c-3 -32 1 -45 19 -63 12 -13 29 -36 38 -52 9 -18 15 -23
15 -12 0 24 -21 68 -33 68 -5 0 -7 9 -4 19 3 15 1 18 -11 14 -12 -5 -14 -2 -8
13 8 21 9 24 7 42 -3 29 -19 9 -23 -29z"/>
<path d="M900 3590 c0 -5 5 -10 10 -10 6 0 10 5 10 10 0 6 -4 10 -10 10 -5 0
-10 -4 -10 -10z"/>
<path d="M4755 3590 c3 -5 8 -10 11 -10 2 0 4 5 4 10 0 6 -5 10 -11 10 -5 0
-7 -4 -4 -10z"/>
<path d="M1335 3556 c2 -20 -1 -33 -6 -30 -5 3 -9 -4 -9 -15 0 -12 -3 -21 -8
-21 -11 0 -34 -58 -29 -72 3 -7 10 0 16 16 7 16 22 40 35 53 17 17 22 32 21
60 -2 20 -7 39 -13 41 -7 2 -9 -11 -7 -32z"/>
<path d="M920 3560 c0 -5 5 -10 10 -10 6 0 10 5 10 10 0 6 -4 10 -10 10 -5 0
-10 -4 -10 -10z"/>
<path d="M2903 3533 c1 -32 4 -40 14 -32 15 13 33 3 33 -19 1 -16 1 -16 10 0
14 23 2 48 -23 45 -14 -1 -23 5 -28 23 -5 19 -6 15 -6 -17z"/>
<path d="M1491 3548 c-1 -9 4 -28 10 -42 9 -19 9 -32 -1 -56 -17 -41 -30 -38
-31 8 -1 23 -3 28 -6 15 -6 -32 -19 -28 -26 7 -4 17 -11 30 -17 30 -7 0 -8
-13 -4 -36 4 -24 3 -35 -3 -31 -6 4 -13 -10 -17 -34 -4 -22 -18 -62 -32 -89
-14 -27 -24 -54 -22 -60 5 -15 74 82 88 124 13 40 30 57 30 29 0 -72 -65 -167
-183 -269 -47 -41 -64 -61 -56 -68 7 -8 16 -4 30 14 42 54 70 81 79 75 4 -3
11 3 15 14 3 10 33 50 66 87 70 79 80 97 105 179 24 80 24 84 8 78 -8 -3 -18
4 -23 18 -7 17 -10 19 -10 7z m-86 -185 c-9 -15 -13 -19 -9 -8 3 11 9 31 12
45 4 18 7 20 10 8 2 -9 -4 -29 -13 -45z"/>
<path d="M2812 3533 c-20 -4 -21 -6 -6 -20 13 -14 17 -14 25 -2 8 13 12 31 7
28 -2 -1 -13 -4 -26 -6z"/>
<path d="M1560 3520 c0 -6 7 -21 15 -34 8 -13 16 -44 17 -69 1 -25 6 -45 12
-44 11 2 35 -83 37 -133 2 -32 2 -33 6 -6 5 32 -24 163 -38 172 -12 7 -11 24
2 24 16 0 39 -65 49 -143 l9 -72 -3 72 c-2 40 1 70 5 67 13 -8 11 1 -8 41 -9
19 -21 35 -25 35 -5 0 -6 5 -2 12 4 6 3 8 -4 4 -10 -6 -52 43 -52 62 0 6 -4
14 -10 17 -5 3 -10 1 -10 -5z"/>
<path d="M2437 3523 c-4 -3 -7 -17 -7 -31 0 -14 -8 -30 -17 -37 -15 -11 -14
-12 10 -12 29 0 44 12 27 22 -5 3 -10 16 -10 27 0 20 1 20 19 4 13 -12 45 -20
99 -25 47 -4 89 -13 105 -24 35 -23 38 -22 32 11 -3 15 -2 21 1 15 3 -7 14
-13 24 -13 10 0 22 -4 25 -10 3 -5 14 -10 24 -10 11 0 21 -9 24 -21 3 -12 10
-18 16 -14 15 9 -17 55 -38 55 -9 0 -31 9 -49 20 -40 25 -42 25 -42 0 0 -20
-24 -28 -35 -11 -3 5 -41 13 -86 17 -63 5 -82 11 -90 25 -10 20 -21 24 -32 12z"/>
<path d="M4190 3519 c0 -5 5 -7 10 -4 6 3 10 8 10 11 0 2 -4 4 -10 4 -5 0 -10
-5 -10 -11z"/>
<path d="M4244 3500 c-7 -33 -20 -39 -27 -12 -3 9 -5 4 -6 -13 -1 -20 6 -34
19 -43 11 -7 20 -21 20 -31 0 -11 15 -39 33 -63 18 -24 37 -52 41 -63 5 -12
10 -15 13 -8 2 6 -7 36 -22 67 -14 30 -30 74 -34 98 -5 24 -9 37 -10 30 -1 -7
-6 -10 -11 -7 -10 6 -8 23 7 63 3 6 0 12 -6 12 -6 0 -14 -13 -17 -30z m33 -97
c15 -50 7 -56 -12 -10 -17 41 -18 47 -7 47 4 0 12 -17 19 -37z"/>
<path d="M3020 3480 l-25 -19 24 6 c22 6 23 4 17 -21 -6 -26 -5 -26 16 -15 13
7 18 14 12 16 -7 2 -10 12 -7 22 7 28 -9 32 -37 11z"/>
<path d="M4106 3484 c-3 -9 -6 -33 -6 -54 0 -21 -5 -40 -11 -42 -7 -2 -6 -21
6 -60 13 -45 27 -67 63 -100 89 -82 130 -128 136 -154 10 -40 -9 -52 -37 -26
-13 12 -29 22 -35 22 -7 0 -12 6 -12 13 -1 14 -35 57 -46 57 -5 0 -18 12 -30
27 l-22 28 2 -32 c1 -30 16 -61 16 -34 0 7 5 9 10 6 6 -3 10 -14 10 -24 0 -9
11 -27 25 -39 15 -13 22 -28 19 -37 -7 -18 12 -21 20 -2 5 10 7 10 12 0 3 -7
14 -13 25 -13 10 0 24 -9 31 -19 6 -10 18 -17 25 -14 8 3 13 -2 14 -13 0 -11
3 -14 6 -6 7 18 23 15 23 -5 0 -10 5 -25 10 -33 8 -11 9 -8 4 13 -6 27 13 41
20 15 16 -56 25 -79 21 -55 -3 15 -1 27 3 27 17 0 60 -75 65 -114 4 -22 11
-44 16 -49 7 -7 8 0 1 23 -5 19 -8 36 -5 38 4 4 11 -12 30 -65 4 -13 25 -18
25 -7 0 3 -11 25 -25 48 -14 24 -23 50 -20 58 4 9 -1 18 -9 21 -9 4 -16 16
-16 27 0 11 -4 20 -9 20 -5 0 -12 8 -16 19 -4 13 -12 17 -30 13 -14 -2 -25 0
-25 7 0 6 -18 20 -40 31 -22 11 -40 23 -40 26 0 2 9 17 19 32 23 31 39 102 23
102 -6 0 -8 -8 -5 -19 6 -23 -35 -37 -44 -15 -3 8 -11 14 -19 14 -8 0 -14 5
-14 12 0 13 -88 98 -102 98 -4 0 -8 9 -8 20 0 11 -5 19 -11 18 -21 -5 -41 74
-36 145 4 69 3 78 -7 51z"/>
<path d="M3177 3475 c-72 -13 -109 -32 -42 -22 22 4 49 7 61 7 11 0 29 7 40
15 10 8 17 14 14 13 -3 0 -36 -6 -73 -13z"/>
<path d="M1564 3412 c0 -31 -3 -69 -7 -84 -6 -22 -4 -28 9 -28 12 0 15 7 12
25 -3 13 -1 22 3 19 5 -3 6 17 2 43 -10 76 -18 88 -19 25z"/>
<path d="M2890 3440 c-6 -12 -9 -24 -7 -27 3 -2 11 5 17 17 6 12 9 24 7 27 -3
2 -11 -5 -17 -17z"/>
<path d="M2927 3428 c-20 -35 -11 -35 30 0 30 26 30 27 8 27 -14 0 -28 -10
-38 -27z"/>
<path d="M2485 3440 c-7 -11 16 -11 60 0 28 7 28 8 -12 9 -23 0 -45 -3 -48 -9z"/>
<path d="M2588 3443 c7 -3 16 -2 19 1 4 3 -2 6 -13 5 -11 0 -14 -3 -6 -6z"/>
<path d="M4320 3437 c-19 -16 -14 -55 11 -87 l20 -25 -8 25 c-4 14 -7 42 -6
63 0 20 0 37 0 37 -1 0 -9 -6 -17 -13z"/>
<path d="M1343 3393 c0 -21 -3 -49 -7 -63 -5 -17 0 -13 18 15 30 46 33 70 10
79 -9 3 -17 6 -19 6 -2 0 -3 -17 -2 -37z"/>
<path d="M4066 3421 c-14 -22 -45 -131 -35 -126 4 3 11 22 15 41 3 19 13 42
21 50 8 7 13 22 11 32 -3 13 -5 14 -12 3z"/>
<path d="M4120 3380 c0 -5 5 -10 11 -10 5 0 7 5 4 10 -3 6 -8 10 -11 10 -2 0
-4 -4 -4 -10z"/>
<path d="M4137 3330 c3 -11 7 -20 9 -20 2 0 4 9 4 20 0 11 -4 20 -9 20 -5 0
-7 -9 -4 -20z"/>
<path d="M1686 3315 c10 -40 6 -113 -7 -150 -37 -102 -48 -125 -65 -132 -10
-4 -22 1 -29 11 -14 18 -17 12 -46 -79 l-13 -40 -8 35 c-5 26 -6 20 -3 -22 4
-60 -4 -78 -24 -54 -18 22 -27 88 -11 84 7 -2 14 3 16 10 1 7 0 8 -2 3 -3 -6
-12 -7 -20 -4 -11 4 -14 -4 -14 -31 0 -45 18 -81 60 -121 l32 -30 -7 37 c-9
45 2 98 20 98 8 0 11 7 8 19 -2 10 4 26 14 36 10 10 17 21 16 24 -2 3 3 6 10
6 6 0 17 7 24 15 11 13 12 12 13 -7 0 -13 -4 -23 -9 -23 -6 0 -4 -15 3 -32 8
-18 12 -41 11 -50 -6 -38 15 -26 26 14 7 24 17 48 24 53 12 11 11 63 -2 76 -4
4 -8 -7 -8 -26 0 -40 -18 -52 -24 -15 -1 14 -8 28 -15 32 -8 6 -8 8 0 8 7 0
14 15 17 33 8 49 31 121 40 128 11 8 0 65 -20 99 l-14 25 7 -30z"/>
<path d="M1527 3317 c-3 -9 -2 -17 3 -17 6 0 10 -7 10 -15 0 -8 -7 -15 -16
-15 -10 0 -14 -6 -11 -14 3 -8 -4 -21 -17 -30 -13 -8 -49 -40 -81 -71 -56 -56
-79 -63 -88 -28 -2 10 -2 -4 0 -32 3 -27 11 -57 19 -66 19 -22 18 -24 -18 -48
-18 -11 -44 -28 -57 -38 l-24 -18 6 30 7 30 -16 -30 c-9 -16 -23 -37 -31 -46
-7 -9 -13 -23 -11 -30 2 -8 -5 -13 -15 -12 -15 1 -17 -4 -13 -23 5 -18 -13
-65 -69 -178 -41 -85 -75 -159 -75 -166 0 -6 -42 -54 -92 -106 -54 -55 -119
-137 -155 -192 -34 -53 -72 -109 -83 -124 -15 -20 -17 -26 -6 -22 8 3 47 57
86 119 46 73 102 144 157 201 47 48 92 102 100 119 30 63 45 85 57 85 8 0 12
9 9 24 -3 13 5 44 16 70 21 46 37 62 28 29 -14 -52 -17 -74 -9 -69 6 3 13 31
17 62 7 60 23 104 36 104 5 0 5 -10 0 -22 -4 -13 -11 -45 -14 -73 -5 -41 -3
-37 13 25 10 41 16 78 13 83 -6 10 49 96 64 97 6 0 9 -10 7 -22 -4 -21 -4 -21
4 -3 5 11 7 25 5 31 -2 6 4 17 13 25 19 15 19 19 0 -61 -5 -21 -4 -20 8 5 9
17 15 40 16 53 0 24 15 30 23 10 3 -8 6 -6 6 5 1 9 8 17 16 17 8 0 15 4 15 9
0 15 73 46 78 32 6 -19 25 -12 19 8 -3 12 3 27 14 37 10 9 16 21 13 26 -3 4 0
7 8 6 8 -2 12 4 10 16 -2 11 1 16 10 13 7 -2 21 2 31 11 22 20 22 1 -1 -29
-21 -28 -42 -75 -42 -92 0 -11 80 139 80 150 0 2 -4 2 -9 -1 -5 -4 -12 0 -14
6 -4 8 -6 7 -6 -3 -1 -9 -8 -20 -17 -23 -15 -6 -15 -4 -1 16 8 13 20 22 26 21
6 -2 11 3 11 10 0 8 4 7 10 -3 14 -22 13 6 -1 32 -10 18 -9 20 5 15 19 -8 20
2 2 26 -19 24 -23 22 -29 -17 -6 -38 -54 -116 -71 -116 -6 0 -20 -14 -31 -30
-11 -16 -23 -30 -27 -30 -3 0 -20 -11 -36 -25 -26 -21 -31 -23 -36 -9 -7 17
21 84 35 84 5 0 9 6 9 13 1 6 24 30 52 52 28 22 62 55 76 73 22 29 23 34 10
45 -9 7 -18 19 -20 26 -3 12 -6 12 -11 -2z"/>
<path d="M4001 3294 c0 -11 3 -14 6 -6 3 7 2 16 -1 19 -3 4 -6 -2 -5 -13z"/>
<path d="M4068 3266 c-22 -16 -24 -30 -3 -22 17 6 21 -9 5 -19 -5 -3 -10 -16
-9 -28 0 -12 3 -16 6 -9 6 16 23 6 23 -14 0 -8 -4 -12 -10 -9 -16 10 -12 -2
13 -43 13 -20 31 -55 40 -77 9 -22 16 -33 16 -25 1 8 -13 42 -29 74 -32 63
-35 70 -22 62 10 -6 6 71 -5 101 -7 18 -10 20 -25 9z"/>
<path d="M4002 3245 c0 -16 2 -22 5 -12 2 9 2 23 0 30 -3 6 -5 -1 -5 -18z"/>
<path d="M4022 3245 c0 -16 2 -22 5 -12 2 9 2 23 0 30 -3 6 -5 -1 -5 -18z"/>
<path d="M4266 3246 c3 -8 13 -17 22 -21 13 -5 13 -2 -3 15 -21 24 -26 25 -19
6z"/>
<path d="M1393 3228 c-6 -7 -20 -33 -32 -58 -21 -44 -19 -42 27 27 22 34 26
57 5 31z"/>
<path d="M1445 3230 c-3 -5 -1 -10 4 -10 6 0 11 5 11 10 0 6 -2 10 -4 10 -3 0
-8 -4 -11 -10z"/>
<path d="M1646 3194 c-9 -8 -16 -23 -16 -32 0 -14 2 -14 9 -3 7 11 9 11 13 0
3 -8 7 1 10 19 5 37 5 37 -16 16z"/>
<path d="M4276 3177 c3 -10 9 -15 12 -12 3 3 0 11 -7 18 -10 9 -11 8 -5 -6z"/>
<path d="M1390 3158 c-12 -22 -12 -22 6 -6 10 10 15 20 12 24 -4 3 -12 -5 -18
-18z"/>
<path d="M1710 3150 c0 -5 5 -10 11 -10 5 0 7 5 4 10 -3 6 -8 10 -11 10 -2 0
-4 -4 -4 -10z"/>
<path d="M4205 3130 c10 -11 20 -18 23 -15 7 6 -18 35 -31 35 -5 0 -2 -9 8
-20z"/>
<path d="M1455 3120 c-10 -11 -16 -22 -13 -25 3 -3 13 6 22 20 20 30 16 32 -9
5z"/>
<path d="M1636 3124 c-4 -9 -9 -14 -13 -10 -8 8 -43 -23 -43 -38 1 -6 10 0 20
13 24 28 26 21 5 -19 -9 -17 -12 -30 -7 -30 9 0 55 90 49 97 -3 2 -7 -4 -11
-13z"/>
<path d="M1177 3057 c-8 -61 8 -82 23 -30 11 35 10 44 -2 57 -14 13 -16 10
-21 -27z"/>
<path d="M1225 3019 c-21 -29 -41 -66 -46 -83 -15 -51 -9 -54 10 -4 19 47 56
107 75 120 6 4 8 10 4 13 -3 3 -22 -18 -43 -46z"/>
<path d="M4982 3029 c-62 -19 -110 -125 -105 -237 3 -77 46 -185 109 -274 98
-140 137 -201 160 -252 21 -47 23 -60 15 -97 -14 -61 -49 -89 -109 -89 -61 1
-77 15 -141 122 -48 80 -123 172 -223 271 -21 21 -38 42 -38 46 0 15 -101 223
-106 218 -3 -3 2 -19 10 -36 9 -16 16 -46 16 -65 0 -27 3 -34 15 -30 9 4 17
-1 21 -12 22 -65 56 -115 125 -184 65 -65 129 -152 221 -301 37 -59 155 -60
209 -3 52 56 18 181 -88 324 -31 41 -59 77 -63 80 -14 11 -82 144 -99 193 -15
43 -17 68 -11 130 4 42 15 88 24 101 9 14 16 32 16 40 0 24 41 46 85 46 39 0
58 -9 127 -60 43 -32 17 1 -31 40 -42 33 -92 43 -139 29z"/>
<path d="M1774 3004 c4 -10 2 -13 -6 -8 -8 5 -9 2 -4 -12 5 -10 9 -26 9 -34 0
-8 11 -26 24 -40 20 -21 23 -22 17 -5 -4 11 -11 26 -17 32 -5 7 -7 22 -4 34 7
25 -1 49 -15 49 -6 0 -7 -7 -4 -16z"/>
<path d="M605 2996 c-16 -8 -46 -31 -65 -52 l-35 -39 35 31 c49 44 72 54 122
54 57 -1 75 -16 99 -86 55 -157 22 -269 -149 -494 -81 -105 -122 -194 -122
-262 0 -43 4 -54 31 -79 34 -32 85 -45 126 -33 24 7 20 9 -29 14 -69 6 -105
36 -112 92 -8 57 59 188 161 316 24 30 62 92 85 139 51 103 61 192 33 289 -31
105 -98 147 -180 110z"/>
<path d="M4416 2997 c3 -10 9 -15 12 -12 3 3 0 11 -7 18 -10 9 -11 8 -5 -6z"/>
<path d="M4050 2970 c-9 -6 -10 -10 -3 -10 6 0 15 5 18 10 8 12 4 12 -15 0z"/>
<path d="M5055 2948 c5 -13 1 -14 -34 -5 -36 10 -43 9 -56 -8 -29 -37 -45 -84
-44 -132 l2 -48 7 60 c3 33 12 71 19 84 11 20 18 23 52 18 26 -3 37 -2 32 5
-3 7 -1 8 6 4 6 -4 9 -12 6 -17 -4 -5 6 -14 20 -19 17 -7 25 -15 22 -25 -4 -9
10 -23 38 -40 49 -28 59 -42 69 -97 4 -21 12 -40 18 -44 8 -5 9 -1 4 12 -14
35 -11 39 19 37 25 -2 28 0 14 10 -9 7 -19 34 -23 62 -10 61 -35 127 -47 119
-5 -3 -2 -15 5 -27 18 -27 10 -78 -10 -70 -8 3 -14 10 -14 17 -1 6 -19 23 -40
38 -22 15 -40 34 -40 42 0 7 -7 19 -15 26 -13 11 -14 10 -10 -2z m83 -97 c3
-8 -1 -12 -9 -9 -7 2 -15 10 -17 17 -3 8 1 12 9 9 7 -2 15 -10 17 -17z"/>
<path d="M4044 2935 c-18 -14 -18 -14 4 -8 12 3 22 9 22 14 0 12 -3 11 -26 -6z"/>
<path d="M596 2885 c-21 -25 -32 -45 -25 -45 10 0 10 -3 1 -12 -10 -10 -14
-10 -21 0 -6 10 -12 7 -25 -12 -9 -14 -21 -26 -26 -26 -20 0 -9 26 25 59 19
19 32 37 29 40 -3 3 -19 -10 -35 -29 -15 -19 -29 -29 -29 -21 0 8 7 22 16 32
10 11 12 19 5 23 -13 9 -40 -56 -48 -114 -3 -25 -10 -51 -16 -57 -7 -10 -4
-13 13 -13 23 0 23 -4 5 -55 -7 -20 -6 -20 9 -1 9 11 16 32 16 47 0 34 40 83
89 109 20 10 30 19 23 20 -19 0 4 40 23 40 8 0 14 5 13 11 -2 6 3 14 11 17 8
3 11 0 7 -7 -5 -8 0 -8 16 -2 13 4 29 6 37 3 8 -3 12 1 9 9 -3 9 -20 14 -46
13 -23 0 -39 3 -36 8 14 23 -8 3 -40 -37z"/>
<path d="M1605 2920 c3 -5 14 -10 23 -10 15 0 15 2 2 10 -20 13 -33 13 -25 0z"/>
<path d="M5161 2883 c7 -12 15 -20 18 -17 3 2 -3 12 -13 22 -17 16 -18 16 -5
-5z"/>
<path d="M731 2885 c0 -5 6 -21 14 -35 8 -14 14 -20 14 -15 0 6 -6 21 -14 35
-8 14 -14 21 -14 15z"/>
<path d="M4410 2845 c0 -14 4 -25 9 -25 4 0 6 11 3 25 -2 14 -6 25 -8 25 -2 0
-4 -11 -4 -25z"/>
<path d="M1256 2829 c-8 -42 0 -50 9 -9 4 17 5 34 2 36 -2 3 -7 -10 -11 -27z"/>
<path d="M4442 2835 c0 -16 2 -22 5 -12 2 9 2 23 0 30 -3 6 -5 -1 -5 -18z"/>
<path d="M1227 2816 c-5 -15 -6 -31 -3 -34 8 -8 18 25 14 45 -3 13 -6 10 -11
-11z"/>
<path d="M4190 2811 c0 -20 -68 -79 -105 -91 -79 -25 -91 -31 -103 -50 -16
-25 -2 -26 25 -1 11 11 40 25 64 31 24 6 52 13 61 16 19 6 83 104 68 104 -6 0
-10 -4 -10 -9z"/>
<path d="M1460 2808 c0 -3 11 -26 25 -51 24 -43 79 -82 98 -70 4 2 14 -1 22
-7 8 -7 15 -9 15 -6 0 4 14 -2 31 -14 33 -24 44 -24 26 0 -15 18 -48 34 -105
49 -23 7 -40 16 -37 21 4 6 -1 10 -10 10 -8 0 -19 8 -22 18 -7 18 -43 60 -43
50z"/>
<path d="M4226 2776 c-9 -14 -16 -32 -16 -39 0 -19 -33 -47 -56 -48 -35 -1
-122 -34 -151 -57 -15 -12 -31 -22 -35 -22 -22 0 7 -115 34 -134 21 -15 27
-38 16 -58 -5 -12 -5 -18 1 -18 6 0 14 12 17 27 6 23 8 24 19 10 7 -10 15 -17
19 -17 4 0 31 -11 59 -24 29 -14 63 -30 77 -35 14 -6 32 -15 40 -20 8 -4 31
-16 50 -26 19 -10 55 -35 80 -56 50 -43 63 -44 31 -3 -11 15 -21 33 -21 41 0
8 -5 11 -11 8 -6 -4 -16 1 -24 11 -11 16 -11 22 2 37 15 16 15 17 -7 15 -16
-2 -23 3 -26 18 -3 15 6 25 34 37 35 16 79 63 70 73 -3 2 -21 -11 -40 -29 -20
-19 -42 -34 -49 -35 -38 -5 -55 -9 -67 -16 -15 -9 -16 6 0 22 6 6 9 14 6 17
-3 3 -13 -1 -22 -10 -9 -10 -16 -12 -16 -5 0 6 -6 10 -12 7 -7 -2 -12 -10 -10
-16 1 -6 -7 -11 -18 -11 -11 0 -20 7 -20 15 0 8 5 15 10 15 6 0 10 7 10 16 0
12 6 15 25 10 19 -5 25 -3 25 10 0 10 3 15 6 11 4 -3 13 0 21 8 8 8 22 19 31
24 13 7 14 13 6 21 -8 8 -15 8 -25 -3 -29 -29 -67 -48 -74 -38 -8 14 -55 14
-55 0 0 -6 -6 -9 -14 -6 -16 6 -17 -54 -1 -65 6 -5 3 -8 -6 -8 -9 0 -20 7 -23
16 -8 22 -8 26 4 19 6 -3 10 1 10 10 0 11 -5 15 -15 11 -9 -3 -15 0 -15 10 0
8 5 12 10 9 16 -10 12 2 -7 21 -17 17 -17 17 -1 11 10 -3 24 1 34 10 16 16 16
15 10 -7 l-7 -25 20 25 c11 14 26 25 33 26 28 2 49 18 64 46 l15 29 -33 -17
c-18 -9 -38 -24 -44 -32 -8 -10 -13 -12 -18 -4 -4 6 -13 9 -21 5 -11 -4 -15 2
-15 21 0 14 -4 26 -10 26 -5 0 -10 7 -10 16 0 10 6 14 15 10 8 -3 15 0 15 6 0
20 18 -5 23 -32 3 -17 4 -14 3 8 -2 39 11 43 17 5 4 -26 4 -26 3 2 0 17 8 42
17 55 9 13 17 32 17 40 0 9 5 21 12 28 6 6 9 14 6 17 -3 3 -13 -6 -22 -19z
m-137 -142 c-10 -12 -14 -12 -20 -2 -4 7 -3 16 4 20 18 11 29 -2 16 -18z m36
-25 c4 -6 4 -13 0 -17 -3 -3 -10 0 -15 8 -7 10 -10 11 -10 3 0 -7 -7 -13 -16
-13 -14 0 -14 3 -4 15 15 18 36 20 45 4z m-25 -39 c0 -5 -5 -10 -11 -10 -5 0
-7 5 -4 10 3 6 8 10 11 10 2 0 4 -4 4 -10z m-62 -30 c3 -21 2 -22 -12 -11 -19
16 -21 44 -3 39 6 -3 14 -15 15 -28z m38 -17 c-10 -10 -19 5 -10 18 6 11 8 11
12 0 2 -7 1 -15 -2 -18z m-26 -28 c0 -8 -4 -15 -10 -15 -5 0 -7 7 -4 15 4 8 8
15 10 15 2 0 4 -7 4 -15z m40 -25 c0 -5 -4 -10 -10 -10 -5 0 -10 5 -10 10 0 6
5 10 10 10 6 0 10 -4 10 -10z m210 -86 c0 -17 -22 -14 -28 4 -2 7 3 12 12 12
9 0 16 -7 16 -16z"/>
<path d="M1420 2773 c0 -5 12 -30 25 -58 14 -27 25 -61 26 -75 l1 -25 8 25 c7
20 8 16 9 -22 1 -37 -3 -48 -15 -48 -11 0 -14 6 -9 23 4 13 3 17 -2 10 -7 -10
-15 -9 -36 2 -15 8 -27 10 -27 4 0 -20 21 -49 35 -49 8 0 15 -5 15 -11 0 -5 4
-8 9 -5 14 9 41 -4 41 -20 0 -17 -3 -16 38 -5 20 6 32 6 32 0 0 -5 -5 -9 -11
-9 -6 0 -8 -9 -4 -20 4 -11 2 -20 -4 -20 -6 0 -11 5 -11 11 0 6 -8 8 -19 4
-12 -3 -21 0 -25 10 -3 10 -11 13 -18 9 -31 -19 -84 -7 -101 22 -4 8 -12 14
-17 14 -21 0 -8 -28 25 -59 19 -17 35 -39 34 -49 0 -14 -2 -14 -7 -2 -11 24
-35 24 -29 0 5 -19 2 -21 -34 -17 -28 2 -49 13 -74 37 -19 19 -35 29 -35 22 0
-7 4 -12 9 -12 5 0 11 -9 14 -20 3 -11 21 -29 42 -41 23 -14 34 -27 31 -36 -3
-8 -6 -17 -6 -19 0 -14 -20 -1 -21 14 0 14 -2 14 -8 -3 -5 -11 -5 -22 0 -25
12 -8 -2 -52 -15 -47 -6 3 -19 -13 -28 -34 -20 -47 -15 -49 22 -9 15 16 67 50
116 76 49 26 100 55 114 64 14 10 35 21 48 24 12 4 20 12 17 17 -4 5 2 10 12
11 10 0 23 2 28 2 20 3 65 50 65 68 0 11 7 32 15 48 14 28 14 29 -23 58 -20
16 -71 39 -112 52 -92 28 -94 30 -109 80 -6 22 -16 40 -21 40 -6 0 -10 -3 -10
-7z m110 -124 c11 -8 12 -12 3 -16 -7 -2 -13 -15 -13 -28 0 -13 -4 -27 -10
-30 -6 -4 -10 12 -10 39 0 48 5 53 30 35z m60 -17 c0 -13 -12 -22 -22 -16 -10
6 -1 24 13 24 5 0 9 -4 9 -8z m-18 -36 c3 2 8 -2 11 -10 4 -11 -1 -14 -19 -12
-29 3 -38 11 -29 26 5 8 11 8 19 1 7 -6 15 -8 18 -5z m74 -62 c-3 -8 -10 -12
-16 -9 -5 3 -10 1 -10 -4 0 -6 -5 -11 -11 -11 -6 0 0 14 12 32 22 30 38 25 25
-8z m-59 -41 c-3 -10 -5 -4 -5 12 0 17 2 24 5 18 2 -7 2 -21 0 -30z m-97 -22
c0 -6 -4 -13 -10 -16 -5 -3 -10 1 -10 9 0 9 5 16 10 16 6 0 10 -4 10 -9z m-20
-52 c0 -5 -7 -9 -16 -9 -8 0 -12 5 -9 10 3 6 1 10 -4 10 -6 0 -11 10 -11 23
l1 22 19 -24 c11 -13 20 -27 20 -32z m60 41 c0 -5 -4 -10 -10 -10 -5 0 -10 5
-10 10 0 6 5 10 10 10 6 0 10 -4 10 -10z m94 -2 c-3 -4 -9 -8 -15 -8 -5 0 -9
4 -9 8 0 5 7 9 15 9 8 0 12 -4 9 -9z m-244 -87 c0 -6 -4 -13 -10 -16 -5 -3
-10 1 -10 9 0 9 5 16 10 16 6 0 10 -4 10 -9z m40 -11 c0 -5 -2 -10 -4 -10 -3
0 -8 5 -11 10 -3 6 -1 10 4 10 6 0 11 -4 11 -10z m-20 -30 c0 -5 -10 -10 -22
-10 -19 0 -20 2 -8 10 19 13 30 13 30 0z"/>
<path d="M3925 2760 c-3 -6 1 -7 9 -4 18 7 21 14 7 14 -6 0 -13 -4 -16 -10z"/>
<path d="M1727 2749 c7 -7 15 -10 18 -7 3 3 -2 9 -12 12 -14 6 -15 5 -6 -5z"/>
<path d="M4490 2727 c0 -14 5 -29 10 -32 7 -4 8 3 4 22 -9 38 -14 42 -14 10z"/>
<path d="M3916 2731 c-4 -7 -5 -15 -2 -18 9 -9 19 4 14 18 -4 11 -6 11 -12 0z"/>
<path d="M4936 2720 c3 -14 10 -32 15 -40 7 -13 8 -13 8 0 0 8 -6 26 -15 40
l-15 25 7 -25z"/>
<path d="M1730 2716 c0 -8 5 -18 10 -21 6 -3 10 1 10 9 0 8 -4 18 -10 21 -5 3
-10 -1 -10 -9z"/>
<path d="M4532 2680 c0 -14 2 -19 5 -12 2 6 2 18 0 25 -3 6 -5 1 -5 -13z"/>
<path d="M4287 2683 c-4 -3 -7 -13 -7 -20 0 -12 3 -12 15 1 8 8 15 17 15 20 0
8 -15 7 -23 -1z"/>
<path d="M726 2665 c-9 -26 -7 -32 5 -12 6 10 9 21 6 23 -2 3 -7 -2 -11 -11z"/>
<path d="M1360 2663 c0 -5 4 -15 10 -23 11 -18 25 -7 17 15 -6 15 -27 21 -27
8z"/>
<path d="M1730 2659 c0 -5 5 -7 10 -4 6 3 10 8 10 11 0 2 -4 4 -10 4 -5 0 -10
-5 -10 -11z"/>
<path d="M4974 2633 c9 -17 21 -35 27 -39 13 -8 -1 21 -26 51 -15 19 -15 18
-1 -12z"/>
<path d="M4337 2605 c-20 -41 -20 -45 -8 -45 10 0 36 68 29 76 -3 2 -12 -12
-21 -31z"/>
<path d="M696 2605 c-48 -74 -51 -80 -35 -68 15 12 64 93 56 93 -3 0 -12 -11
-21 -25z"/>
<path d="M1316 2585 c11 -46 23 -65 23 -35 0 14 -7 34 -15 45 -15 19 -15 19
-8 -10z"/>
<path d="M5016 2570 c4 -8 34 -51 66 -94 106 -142 138 -215 138 -311 0 -91
-56 -144 -155 -148 -39 -2 -49 2 -65 23 -22 29 -25 27 -34 -25 -4 -25 -3 -35
2 -26 8 10 17 11 43 2 79 -25 186 36 216 125 25 72 -28 226 -119 345 -58 75
-102 127 -92 109z"/>
<path d="M608 2478 c-37 -45 -91 -128 -84 -128 2 0 21 24 42 53 20 28 48 67
62 85 36 47 20 39 -20 -10z"/>
<path d="M4296 2475 c4 -8 11 -15 16 -15 6 0 5 6 -2 15 -7 8 -14 15 -16 15 -2
0 -1 -7 2 -15z"/>
<path d="M1356 2455 c-9 -26 -7 -32 5 -12 6 10 9 21 6 23 -2 3 -7 -2 -11 -11z"/>
<path d="M3935 2459 c-9 -14 -2 -20 14 -10 8 6 9 11 3 15 -6 3 -14 1 -17 -5z"/>
<path d="M1700 2440 c0 -5 5 -10 10 -10 6 0 10 5 10 10 0 6 -4 10 -10 10 -5 0
-10 -4 -10 -10z"/>
<path d="M1630 2400 c0 -5 5 -10 11 -10 5 0 7 5 4 10 -3 6 -8 10 -11 10 -2 0
-4 -4 -4 -10z"/>
<path d="M4384 2374 c15 -45 55 -124 56 -111 0 4 -7 24 -15 44 -30 71 -8 41
30 -41 21 -46 47 -89 58 -95 15 -10 17 -10 12 0 -5 8 -4 10 3 5 7 -4 12 -14
12 -22 0 -8 4 -14 9 -14 12 0 23 -48 15 -62 -8 -12 -74 59 -74 79 0 7 -6 13
-14 13 -8 0 -21 9 -29 20 -8 12 -21 18 -29 15 -8 -3 -35 -1 -59 5 -24 6 -54
14 -66 17 -39 9 -68 -5 -90 -45 -28 -49 -55 -180 -54 -259 0 -34 -4 -65 -9
-68 -13 -8 -111 48 -158 89 -33 29 -34 29 -19 5 10 -14 44 -41 78 -60 33 -19
69 -42 79 -53 11 -10 25 -16 33 -13 17 6 29 59 20 84 -5 12 -3 14 7 8 10 -6
12 -4 7 9 -4 10 -1 24 8 32 8 8 15 29 15 47 0 18 2 46 4 62 2 17 4 38 5 47 1
12 6 15 19 11 14 -5 15 -3 5 8 -16 16 -17 33 -2 23 8 -4 9 1 4 16 -6 19 -4 22
9 17 9 -4 16 -3 16 1 0 10 41 9 55 0 6 -4 23 -5 38 -4 19 2 28 -2 33 -17 5
-15 8 -17 15 -6 4 7 9 11 11 9 2 -3 12 -22 22 -43 22 -43 15 -63 -8 -20 -8 15
-15 23 -16 18 0 -20 31 -55 51 -55 10 0 19 -6 19 -14 0 -19 -68 -16 -80 4 -13
20 -12 33 0 25 6 -3 10 -4 10 -1 0 3 -9 10 -20 16 -18 9 -19 7 -14 -27 2 -20
6 -39 9 -41 4 -5 -20 -32 -29 -32 -3 0 -6 7 -6 16 0 9 5 12 12 8 8 -5 9 -2 5
10 -4 10 -7 20 -7 22 0 2 -4 4 -10 4 -5 0 -7 -7 -4 -15 4 -8 1 -15 -5 -15 -7
0 -11 -14 -11 -32 1 -18 -2 -45 -6 -60 -4 -18 -2 -28 5 -28 6 0 11 6 11 14 0
25 21 29 43 7 30 -27 150 -81 182 -81 14 0 28 -7 31 -15 4 -9 14 -20 24 -25
15 -8 17 -3 17 38 0 26 -2 35 -4 20 -5 -32 -23 -38 -23 -8 0 14 -7 20 -22 21
-13 0 -17 3 -10 6 6 2 10 9 7 14 -3 4 -9 57 -12 116 -6 119 -29 191 -63 200
-12 3 -24 19 -30 42 -14 49 -33 77 -25 36 4 -20 -4 -10 -21 28 -15 31 -31 57
-37 57 -5 0 -16 8 -23 18 -11 14 -11 9 0 -24z m54 -368 c3 -12 -1 -17 -10 -14
-7 3 -15 13 -16 22 -3 12 1 17 10 14 7 -3 15 -13 16 -22z m96 9 c3 -8 1 -15
-4 -15 -6 0 -10 7 -10 15 0 8 2 15 4 15 2 0 6 -7 10 -15z m-24 -45 c0 -5 -4
-10 -10 -10 -5 0 -10 5 -10 10 0 6 5 10 10 10 6 0 10 -4 10 -10z"/>
<path d="M1281 2374 c0 -11 3 -14 6 -6 3 7 2 16 -1 19 -3 4 -6 -2 -5 -13z"/>
<path d="M1232 2317 c-12 -26 -22 -52 -21 -59 0 -7 7 1 15 19 7 17 18 35 24
38 7 4 2 -12 -10 -35 -12 -23 -19 -44 -17 -47 4 -4 57 102 57 114 0 2 -4 2 -9
-1 -5 -4 -11 -1 -13 6 -2 6 -14 -10 -26 -35z"/>
<path d="M506 2323 c-6 -14 -5 -15 5 -6 7 7 10 15 7 18 -3 3 -9 -2 -12 -12z"/>
<path d="M466 2244 c-9 -26 -15 -66 -15 -88 l1 -41 9 50 c4 28 12 65 18 84 16
53 5 48 -13 -5z"/>
<path d="M1177 2240 c-10 -27 -23 -49 -29 -47 -26 5 -58 -79 -68 -179 -13
-130 -20 -165 -31 -158 -5 3 -9 -5 -9 -17 0 -12 -7 -27 -16 -34 -9 -6 -15 -18
-12 -25 3 -10 8 -9 20 3 9 9 18 21 20 26 1 6 14 12 28 15 53 9 190 72 190 87
0 5 5 9 10 9 16 0 58 -101 66 -159 8 -61 20 -51 27 22 2 32 1 45 -6 38 -14
-14 -47 41 -47 77 0 16 -5 33 -12 40 -9 9 -9 15 -1 23 6 6 8 20 5 31 -5 20 -5
20 -19 -3 -12 -20 -13 -21 -10 -4 3 11 8 29 12 40 3 11 -1 7 -10 -8 -22 -37
-28 -29 -17 21 8 34 7 39 -6 38 -9 -2 -18 -9 -20 -16 -3 -7 0 -10 6 -6 6 4 8
-2 5 -14 -3 -11 -9 -20 -14 -20 -5 0 -6 8 -3 18 2 9 -1 7 -7 -5 -8 -14 -19
-21 -32 -19 -28 4 -34 26 -8 26 20 0 59 45 48 56 -3 3 -10 -4 -17 -15 -19 -37
-28 -22 -9 16 25 49 39 62 40 38 0 -18 1 -18 9 3 9 20 25 27 58 23 6 -1 12 2
12 8 0 5 18 9 40 8 34 -2 40 -5 40 -24 0 -33 1 -37 10 -48 15 -19 31 -96 31
-154 0 -32 7 -71 15 -86 8 -15 14 -34 14 -41 0 -16 36 -19 45 -4 4 6 25 20 48
31 44 21 79 48 112 90 11 13 2 8 -20 -12 -46 -42 -124 -89 -148 -89 -14 0 -17
11 -19 53 -3 125 -18 220 -43 267 -9 17 -28 35 -43 41 -27 10 -35 10 -107 -11
-22 -6 -49 -12 -60 -13 -25 -3 -75 -36 -75 -51 -1 -14 -57 -76 -70 -76 -14 0
-13 3 12 61 18 40 24 47 29 32 7 -17 8 -17 8 0 1 9 5 17 11 17 5 0 19 18 30
40 22 44 25 54 10 45 -13 -8 -13 1 0 26 6 10 7 19 3 19 -5 0 -16 -22 -26 -50z
m73 -239 c0 -17 -12 -41 -21 -41 -10 0 -12 33 -2 43 9 10 23 9 23 -2z m-80
-12 c0 -4 -11 -6 -25 -6 -14 0 -25 3 -25 8 0 5 11 8 25 7 14 -1 25 -5 25 -9z
m-2 -40 c-2 -6 -8 -10 -13 -10 -5 0 -11 4 -13 10 -2 6 4 11 13 11 9 0 15 -5
13 -11z"/>
<path d="M4651 2253 c-1 -23 4 -33 14 -33 8 0 15 7 15 15 0 8 -4 15 -9 15 -5
0 -12 8 -14 18 -3 9 -5 2 -6 -15z"/>
<path d="M1003 2235 c-18 -19 -16 -45 2 -45 10 0 15 10 15 30 0 34 0 34 -17
15z"/>
<path d="M4445 2230 c3 -5 8 -10 11 -10 2 0 4 5 4 10 0 6 -5 10 -11 10 -5 0
-7 -4 -4 -10z"/>
<path d="M4620 2214 c0 -14 4 -23 10 -19 6 3 10 15 10 26 0 10 -4 19 -10 19
-5 0 -10 -12 -10 -26z"/>
<path d="M4690 2230 c0 -5 5 -10 10 -10 6 0 10 5 10 10 0 6 -4 10 -10 10 -5 0
-10 -4 -10 -10z"/>
<path d="M960 2205 c0 -8 5 -15 10 -15 6 0 10 7 10 15 0 8 -4 15 -10 15 -5 0
-10 -7 -10 -15z"/>
<path d="M1206 2205 c-3 -8 -1 -15 4 -15 6 0 10 7 10 15 0 8 -2 15 -4 15 -2 0
-6 -7 -10 -15z"/>
<path d="M4721 2204 c0 -11 3 -14 6 -6 3 7 2 16 -1 19 -3 4 -6 -2 -5 -13z"/>
<path d="M1042 2185 c0 -16 2 -22 5 -12 2 9 2 23 0 30 -3 6 -5 -1 -5 -18z"/>
<path d="M932 2174 c-20 -22 -10 -34 11 -14 10 10 15 20 10 23 -4 3 -14 -2
-21 -9z"/>
<path d="M4608 2091 c-2 -22 0 -37 3 -35 9 5 17 74 8 74 -4 0 -9 -18 -11 -39z"/>
<path d="M454 2085 c4 -16 12 -34 17 -40 5 -5 4 6 -2 25 -15 45 -24 54 -15 15z"/>
<path d="M1047 2068 c8 -57 13 -61 13 -10 0 22 -4 43 -9 46 -5 4 -7 -12 -4
-36z"/>
<path d="M4641 2094 c0 -11 3 -14 6 -6 3 7 2 16 -1 19 -3 4 -6 -2 -5 -13z"/>
<path d="M1022 2065 c0 -16 2 -22 5 -12 2 9 2 23 0 30 -3 6 -5 -1 -5 -18z"/>
<path d="M4631 2050 c-1 -14 -4 -43 -6 -65 l-4 -40 10 34 c6 18 8 47 6 65 -3
26 -4 27 -6 6z"/>
<path d="M4656 2049 c-11 -34 -13 -139 -4 -146 6 -3 8 -2 5 4 -3 5 -2 40 4 78
8 62 6 98 -5 64z"/>
<path d="M996 1990 c-5 -30 -10 -93 -11 -140 -2 -101 -4 -113 -15 -80 -8 24
-8 23 -9 -8 -1 -21 -5 -31 -12 -26 -6 3 -9 17 -6 31 2 13 1 21 -3 16 -5 -4
-10 -19 -13 -33 -2 -15 -5 -5 -7 25 -3 49 -3 49 -10 15 -6 -26 -8 -29 -9 -11
-1 31 -14 19 -16 -14 0 -14 5 -25 12 -25 7 0 13 -5 13 -11 0 -5 -4 -8 -9 -5
-5 3 -11 -1 -15 -9 -13 -34 -25 -12 -21 38 2 28 2 44 -1 34 -3 -9 -10 -15 -15
-12 -8 5 -11 -22 -13 -125 -1 -31 -32 -78 -38 -58 -3 8 -13 -1 -26 -22 -12
-19 -22 -32 -22 -27 0 4 -13 1 -30 -8 -16 -8 -38 -15 -50 -15 -31 0 -24 -18
10 -25 17 -4 30 -13 30 -21 0 -9 -4 -12 -10 -9 -5 3 -10 2 -10 -3 0 -5 -9 -12
-21 -15 -14 -4 -18 -10 -13 -19 5 -7 7 -23 6 -35 -2 -11 1 -24 7 -27 6 -4 8
-13 5 -20 -3 -7 2 -16 10 -19 9 -4 16 -12 16 -18 0 -7 8 -18 18 -26 12 -10 14
-16 4 -19 -6 -3 -9 -11 -5 -17 4 -7 8 -14 9 -17 16 -53 34 -69 34 -30 0 13 7
20 18 20 10 0 22 3 26 7 14 14 127 2 148 -15 27 -23 51 -71 44 -89 -5 -13 -9
-13 -22 -2 -9 7 -20 23 -25 36 -8 22 -66 55 -81 46 -15 -8 -8 -23 11 -23 20 0
61 -44 61 -65 0 -26 -30 -25 -42 1 -12 26 -88 73 -88 54 0 -6 12 -21 27 -34
14 -12 23 -28 20 -33 -10 -17 -48 -4 -82 27 -22 20 -35 26 -50 20 -23 -9 -58
6 -49 21 3 6 -5 27 -19 48 -14 20 -33 62 -42 92 -10 30 -33 86 -52 124 -19 39
-31 78 -28 86 3 9 23 21 43 27 21 6 65 37 100 69 55 51 63 63 67 103 l5 45
-19 -53 c-10 -29 -20 -54 -22 -56 -38 -36 -107 -86 -120 -86 -26 0 -69 -40
-69 -64 0 -12 13 -43 29 -68 16 -25 32 -60 36 -79 5 -28 54 -147 85 -209 4 -8
24 -16 46 -18 24 -2 47 -12 62 -28 25 -24 39 -28 100 -24 46 2 40 -11 -18 -39
l-49 -25 -21 27 c-12 15 -27 27 -34 27 -6 0 -19 8 -28 19 -14 17 -30 18 -171
16 -164 -2 -177 -5 -228 -56 -22 -22 -26 -54 -6 -46 12 4 49 -8 97 -32 8 -5
18 -21 21 -37 18 -78 41 -148 55 -172 8 -15 12 -18 8 -7 -12 36 -54 190 -54
198 0 5 10 5 23 1 84 -27 295 18 444 95 146 74 401 187 407 180 7 -11 86 -226
86 -236 0 -6 5 -15 11 -19 14 -8 10 7 -42 150 -22 59 -37 111 -34 114 3 4 10
0 15 -8 8 -13 10 -13 10 1 0 18 38 29 96 29 22 0 34 -5 34 -13 0 -16 -32 -19
-42 -3 -15 23 -19 -4 -5 -36 22 -48 40 -109 34 -115 -7 -6 -47 84 -47 106 0 9
-5 23 -11 31 -8 12 -9 10 -4 -7 8 -29 -11 -31 -20 -2 -4 11 -9 18 -12 15 -7
-7 65 -213 84 -241 15 -23 18 -2 2 26 -6 11 -8 25 -6 32 2 7 11 -5 20 -25 18
-43 27 -49 21 -15 l-5 22 12 -22 c6 -12 20 -21 30 -20 22 1 24 8 8 24 -8 8 -8
13 0 17 6 4 15 -4 21 -19 15 -40 13 -45 -22 -44 -39 0 -99 -11 -113 -21 -5 -4
-23 -10 -40 -14 -16 -4 -100 -41 -185 -83 -241 -116 -341 -157 -456 -187 -82
-21 -114 -21 -114 2 0 20 -68 232 -69 216 -1 -6 13 -55 29 -109 39 -128 39
-130 -9 -131 -37 -1 -39 0 -44 33 -8 50 -70 243 -78 243 -4 0 8 -44 26 -99 40
-119 49 -161 38 -161 -5 0 -15 17 -21 37 l-11 38 5 -37 c8 -65 -12 -42 -36 40
-22 76 -49 128 -34 67 9 -38 -7 -25 -23 18 -6 18 -12 25 -12 16 -1 -9 10 -45
24 -80 18 -46 24 -54 20 -29 -6 35 -6 35 9 10 22 -35 19 -57 -6 -63 -27 -7
-41 1 -34 19 3 8 0 11 -8 8 -14 -5 -61 135 -54 158 3 7 10 -10 18 -37 7 -28
15 -43 17 -35 5 20 -21 83 -41 100 -19 15 -22 45 -4 34 8 -5 9 -2 5 10 -4 10
-7 22 -7 27 0 6 -4 8 -9 4 -5 -3 -12 3 -15 12 -18 58 8 -80 32 -172 35 -134
55 -159 130 -170 41 -5 52 -11 52 -25 0 -45 92 -250 137 -305 29 -35 92 -85
107 -85 6 0 -1 7 -14 16 -69 46 -140 136 -140 177 0 7 64 42 148 80 l147 68
15 -23 c15 -24 38 -47 109 -112 56 -51 88 -94 97 -131 l7 -30 -37 33 c-39 34
-129 82 -155 82 -30 1 -126 48 -153 76 -31 30 -31 30 -28 -54 2 -74 8 -99 35
-156 26 -54 25 -66 -2 -45 -10 7 -3 -3 15 -22 18 -19 29 -38 26 -42 -11 -11
25 -57 45 -57 23 0 35 28 20 46 -6 8 -23 20 -38 27 -18 8 -28 23 -32 47 -4 19
-14 52 -23 73 -9 20 -19 62 -22 92 -7 65 -1 68 73 31 26 -13 64 -27 83 -31 73
-15 138 -54 174 -105 19 -27 47 -57 61 -66 24 -15 34 -52 18 -67 -10 -11 -53
34 -53 55 0 11 -4 17 -10 13 -14 -9 4 -47 34 -69 21 -16 30 -18 44 -9 35 22 6
94 -47 114 -15 6 -21 14 -17 25 18 47 -29 117 -156 232 -49 44 -134 174 -124
190 3 5 19 12 35 15 27 6 60 20 236 103 80 37 77 39 91 -53 6 -45 23 -106 37
-136 31 -64 137 -168 200 -195 101 -44 126 -53 202 -73 156 -40 437 -42 590
-4 181 44 249 56 344 61 143 8 350 -17 471 -55 150 -47 467 -59 630 -22 150
33 188 46 294 96 258 121 325 197 328 371 2 71 5 84 18 78 8 -3 29 -11 45 -17
17 -6 44 -20 60 -32 59 -43 223 -102 252 -90 14 5 15 -2 10 -47 -7 -74 -22
-101 -76 -139 -25 -17 -58 -45 -73 -61 -48 -53 -97 -215 -69 -232 6 -4 11 -2
11 5 0 6 14 33 32 60 32 49 100 102 161 123 45 16 108 63 132 100 28 43 55 47
55 7 0 -42 -27 -156 -51 -217 -14 -35 -21 -80 -23 -142 -3 -92 -16 -128 -43
-118 -7 3 -13 -1 -13 -9 0 -9 10 -15 25 -15 29 0 60 56 53 95 -3 14 1 30 8 36
9 7 11 17 5 26 -6 12 5 29 44 67 71 71 129 174 150 266 9 41 20 88 24 104 6
28 11 30 81 43 154 26 173 34 196 79 12 22 24 53 27 70 8 43 55 174 67 189 14
16 3 77 -15 88 -8 4 -20 13 -27 20 -40 36 -99 77 -120 82 -17 4 -31 1 -43 -12
-49 -48 -99 -65 -195 -64 l-85 0 -51 -54 c-29 -30 -59 -55 -68 -55 -22 0 -126
49 -126 59 0 5 10 11 23 14 91 22 113 30 138 47 15 11 39 20 53 20 27 0 35 6
69 60 44 71 58 101 72 154 8 29 28 75 45 100 43 63 38 85 -28 117 -64 31 -149
112 -157 150 -4 16 1 65 10 109 17 81 16 149 -1 80 l-8 -35 -7 35 c-6 31 -7
30 -8 -17 0 -29 3 -53 8 -53 6 0 6 -12 0 -32 -13 -47 -11 -95 5 -126 25 -47
140 -132 179 -132 30 0 27 -43 -8 -99 -19 -31 -41 -78 -49 -106 -9 -27 -29
-71 -45 -96 -16 -26 -31 -55 -33 -65 -3 -14 -12 -19 -38 -19 -21 0 -43 -8 -57
-21 -22 -21 -102 -48 -112 -38 -2 2 13 20 35 39 41 36 33 46 -16 20 -16 -9
-33 -27 -36 -40 -7 -30 -41 -52 -56 -37 -14 14 37 90 67 102 44 17 27 29 -17
14 -36 -12 -46 -22 -63 -59 -22 -51 -49 -63 -39 -17 12 56 16 63 47 86 24 18
47 25 89 27 32 1 61 0 65 -4 3 -4 17 -7 30 -7 17 0 23 -6 23 -22 1 -23 1 -23
16 -3 8 11 12 25 9 33 -2 7 2 15 10 18 8 4 15 11 15 16 0 6 -7 8 -15 4 -8 -3
-15 -1 -15 4 0 5 9 12 21 15 12 4 18 12 15 21 -3 8 -1 14 5 14 11 0 33 49 30
68 -1 6 4 12 11 12 9 0 9 3 -2 10 -13 8 -13 11 -1 19 11 7 9 10 -8 16 -11 3
-21 11 -21 16 0 6 -4 7 -10 4 -5 -3 -10 -2 -10 4 0 6 15 18 33 28 l32 18 -32
3 c-18 2 -33 7 -33 13 0 5 -7 9 -16 9 -8 0 -28 15 -45 32 -16 18 -29 26 -29
19 0 -8 -8 -3 -19 11 -11 13 -19 31 -19 39 3 48 -3 99 -12 99 -5 0 -10 -9 -10
-20 0 -24 -8 -25 -34 -5 -11 8 -30 15 -43 15 -19 0 -23 6 -24 33 -1 23 -3 26
-6 10 -4 -21 -23 -33 -23 -15 0 4 -11 7 -25 7 -14 0 -25 -1 -25 -2 0 -1 11
-28 26 -60 15 -36 43 -74 72 -101 67 -61 81 -72 91 -72 4 0 31 -19 60 -42 45
-37 51 -46 51 -80 0 -47 -19 -94 -53 -130 -21 -23 -35 -28 -74 -28 -52 0 -126
-19 -143 -36 -6 -6 -15 -33 -18 -60 -9 -60 -12 -60 -124 5 -148 85 -230 113
-339 115 -47 1 -62 -3 -83 -23 -14 -13 -28 -36 -31 -52 -4 -16 -11 -31 -16
-35 -6 -3 -24 -36 -40 -72 -17 -37 -37 -80 -45 -96 -17 -36 -18 -44 -2 -28 7
7 25 12 40 12 20 0 28 5 28 18 1 9 12 31 26 47 l25 30 -17 -43 c-19 -48 -13
-62 18 -43 11 7 23 9 27 4 3 -4 11 -9 16 -10 6 -1 17 -4 25 -8 16 -5 55 63
109 189 12 27 24 46 27 43 3 -3 -17 -55 -45 -116 -28 -60 -51 -114 -51 -119 0
-15 40 -9 51 8 9 12 10 10 6 -7 -3 -13 -1 -23 4 -23 5 0 9 6 9 14 0 8 5 18 11
22 8 5 10 -2 6 -21 l-5 -29 17 23 c19 25 35 18 20 -10 -5 -11 -6 -19 -1 -19 6
0 12 8 15 19 3 14 11 17 31 14 34 -7 68 24 86 77 16 48 10 64 -29 81 -25 11
-29 18 -25 39 l5 25 -13 -23 c-16 -27 -32 -18 -17 9 6 11 6 19 0 19 -5 0 -11
-7 -15 -15 -3 -8 -11 -15 -18 -15 -9 0 -9 3 0 12 21 21 13 32 -9 12 -22 -19
-22 -19 -16 7 5 20 3 26 -11 26 -9 0 -23 -4 -30 -10 -9 -7 -11 -6 -7 5 6 16
-20 32 -35 23 -5 -3 -16 -27 -26 -53 -10 -26 -26 -62 -36 -80 -10 -18 -18 -39
-18 -46 0 -7 -7 -20 -16 -27 -15 -12 -16 -11 -9 11 7 23 35 84 71 154 12 23
12 31 2 37 -16 10 -44 -15 -52 -47 -4 -13 -11 -24 -16 -24 -11 0 -3 25 17 57
13 20 13 21 -6 16 -15 -4 -21 -1 -21 11 0 21 90 22 179 1 77 -18 255 -105 286
-139 23 -25 252 -131 314 -144 185 -41 344 -22 497 60 29 15 54 24 58 21 9 -9
7 -41 -3 -47 -5 -4 -7 4 -5 16 3 18 1 17 -8 -5 -7 -15 -18 -25 -24 -23 -8 3
-19 -15 -30 -45 -10 -27 -22 -49 -26 -49 -11 0 -10 5 6 45 9 20 11 35 5 35 -5
0 -11 -6 -13 -13 -2 -6 -14 -48 -26 -92 -21 -80 -58 -170 -66 -162 -4 4 61
221 72 238 3 5 1 9 -4 9 -12 0 -96 -256 -88 -269 4 -7 1 -8 -8 -5 -22 9 -21
17 24 140 22 60 40 113 40 118 0 22 -19 -12 -38 -69 -49 -141 -64 -181 -73
-189 -14 -15 -11 7 7 50 23 56 63 194 55 194 -3 0 -22 -49 -41 -109 -19 -60
-40 -117 -47 -127 -19 -25 -28 -9 -11 18 20 30 72 187 65 194 -3 3 -10 -12
-17 -33 -27 -85 -73 -193 -82 -193 -6 0 -7 8 -3 18 4 9 18 44 30 77 12 33 28
73 34 88 13 34 13 37 3 37 -5 0 -16 -24 -25 -53 -9 -29 -28 -80 -41 -112 -22
-54 -27 -60 -55 -62 -29 -3 -31 -1 -26 25 5 26 5 26 -6 5 -10 -20 -29 -32 -29
-19 0 2 16 46 35 96 19 50 35 96 35 101 0 20 -18 -1 -24 -28 -12 -48 -58 -158
-70 -166 -18 -12 -130 5 -196 30 -8 3 -24 8 -35 10 -11 2 -42 12 -70 22 -27
11 -68 25 -90 32 -22 6 -47 15 -55 20 -43 25 -225 109 -235 109 -7 0 -32 9
-56 19 -37 16 -159 37 -194 34 -59 -6 -83 -16 -88 -33 -3 -13 0 -20 10 -20 8
0 33 -16 56 -35 48 -42 55 -43 67 -10 5 14 14 25 20 25 15 0 12 -16 -5 -30
-19 -16 -19 -30 -1 -30 8 0 21 -6 28 -14 20 -19 58 -30 58 -16 0 14 51 102 56
97 7 -7 -25 -87 -41 -103 -23 -23 -18 -40 6 -18 20 18 20 18 14 -11 l-7 -30
23 35 c12 19 29 51 37 70 8 19 17 30 19 24 4 -12 -44 -121 -58 -129 -5 -4 -9
-14 -9 -23 0 -13 5 -12 20 8 11 14 20 28 20 31 1 21 52 119 60 114 9 -5 -41
-119 -74 -170 -10 -15 -12 -25 -5 -25 6 0 27 36 47 80 20 44 41 80 45 80 5 0
5 -35 2 -77 -6 -56 -16 -92 -39 -137 -39 -75 -61 -83 -69 -27 -6 45 -62 125
-79 115 -7 -4 -8 -2 -4 5 7 11 -15 41 -31 41 -5 0 -19 13 -31 30 -12 16 -32
34 -45 40 -22 11 -22 11 -2 -5 11 -9 19 -23 17 -31 -2 -8 2 -14 8 -14 6 0 8
-5 5 -10 -4 -6 -15 -8 -25 -5 -10 3 -33 -4 -53 -15 -177 -105 -524 -139 -757
-76 -52 15 -107 31 -122 37 -15 6 -33 9 -40 7 -7 -3 21 -14 62 -26 41 -12 98
-29 125 -37 122 -35 283 -39 443 -9 22 4 32 2 32 -6 0 -23 32 -121 38 -116 3
3 -3 33 -13 66 -10 33 -15 63 -11 67 12 12 22 -11 41 -92 10 -44 20 -75 22
-68 2 6 -3 38 -11 71 -9 33 -16 68 -15 78 1 35 18 -15 49 -141 15 -66 29 -111
29 -100 0 11 -10 67 -24 125 -14 58 -25 112 -24 120 0 29 28 -38 38 -91 11
-58 24 -116 36 -163 7 -25 5 -28 -8 -23 -9 3 -19 2 -22 -4 -4 -5 -10 -7 -15
-4 -5 3 -11 1 -15 -5 -4 -6 -10 -8 -15 -5 -5 3 -17 1 -27 -4 -50 -26 -145 -36
-343 -35 -160 1 -217 5 -260 18 -30 10 -75 22 -100 27 -25 6 -64 15 -88 21
l-43 11 5 51 c14 131 17 191 12 185 -8 -8 -14 -47 -16 -99 -1 -41 -2 -43 -15
-26 -10 13 -12 32 -8 64 5 33 3 43 -6 38 -6 -4 -9 -11 -6 -16 7 -11 -14 -17
-42 -12 -14 3 -23 12 -23 23 0 26 20 34 27 10 3 -12 10 -21 15 -21 6 0 8 7 4
15 -3 10 1 15 13 15 10 0 22 7 25 16 9 24 8 26 -14 19 -18 -6 -20 -2 -20 39 0
33 4 46 14 46 8 0 17 -8 19 -17 4 -15 5 -15 6 -2 1 14 8 15 44 8 23 -4 49 -8
57 -8 13 0 13 1 0 8 -25 14 -165 31 -253 31 -112 0 -229 -12 -197 -20 23 -6
25 -10 28 -78 2 -42 -1 -72 -7 -72 -17 0 -24 22 -24 74 1 44 0 46 -6 16 -6
-35 -35 -54 -44 -28 -2 7 -3 3 -1 -8 5 -26 -24 -114 -37 -114 -6 0 -9 -8 -7
-17 2 -10 -4 -19 -14 -21 -13 -2 -18 3 -18 17 0 12 -5 21 -11 21 -6 0 -8 -7
-5 -16 3 -9 6 -24 6 -35 0 -13 7 -19 24 -19 17 0 25 -7 28 -25 3 -14 0 -29 -6
-33 -17 -14 -222 -54 -321 -63 -241 -23 -267 -23 -283 -3 -10 13 -16 15 -19 7
-6 -15 -29 -17 -38 -3 -3 5 3 41 15 78 30 101 23 111 -9 13 -15 -47 -32 -86
-39 -89 -17 -5 -15 14 13 102 14 44 23 81 21 84 -3 2 -17 -35 -32 -82 -24 -77
-44 -110 -44 -72 0 28 83 266 92 266 9 0 7 -20 -9 -75 -10 -36 14 -2 26 37
l12 36 72 -5 c93 -7 240 11 342 42 44 13 118 33 165 44 58 13 69 18 35 14 -27
-3 -84 -14 -125 -25 -246 -62 -368 -73 -536 -48 -124 19 -224 61 -224 93 0 5
18 29 39 52 49 54 60 100 38 164 -9 25 -31 91 -50 146 -51 153 -44 145 -135
145 -104 -1 -247 -44 -420 -128 -45 -22 -62 -18 -62 11 -1 66 -48 97 -148 97
-46 0 -57 4 -81 30 -15 17 -33 52 -40 78 -12 50 -12 114 1 106 6 -4 60 32 114
75 5 4 20 14 33 20 36 20 94 89 117 139 18 39 20 50 9 62 -14 16 -19 63 -14
150 3 54 3 54 9 -20 l6 -75 1 70 c1 39 -2 90 -6 115 l-7 45 -8 -55z m3769
-267 c5 1 11 -6 13 -15 2 -10 -1 -18 -7 -18 -6 0 -11 4 -11 10 0 5 -7 7 -15 4
-9 -4 -15 0 -15 10 0 9 -3 15 -7 15 -17 -3 -24 2 -18 11 4 6 14 4 28 -5 12 -8
26 -13 32 -12z m-3805 -12 c0 -6 -4 -13 -10 -16 -5 -3 -10 1 -10 9 0 9 5 16
10 16 6 0 10 -4 10 -9z m-30 -22 c0 -12 -4 -18 -11 -13 -6 3 -15 1 -19 -6 -4
-7 -13 -9 -19 -5 -9 5 -9 10 0 21 6 7 15 11 20 8 5 -3 9 0 9 5 0 6 5 11 10 11
6 0 10 -9 10 -21z m3825 -9 c3 -5 1 -10 -4 -10 -6 0 -11 5 -11 10 0 6 2 10 4
10 3 0 8 -4 11 -10z m-3835 -30 c0 -5 -5 -10 -11 -10 -5 0 -7 5 -4 10 3 6 8
10 11 10 2 0 4 -4 4 -10z m3920 -30 c0 -5 -4 -10 -10 -10 -5 0 -10 5 -10 10 0
6 5 10 10 10 6 0 10 -4 10 -10z m-4000 -30 c0 -5 -4 -10 -10 -10 -5 0 -10 5
-10 10 0 6 5 10 10 10 6 0 10 -4 10 -10z m69 7 c-2 -1 -12 -9 -22 -16 -15 -12
-17 -12 -11 3 3 9 13 16 22 16 8 0 13 -1 11 -3z m-159 -71 c0 -3 -4 -8 -10
-11 -5 -3 -10 -1 -10 4 0 6 5 11 10 11 6 0 10 -2 10 -4z m792 -273 c-10 -4
-10 -8 -1 -19 9 -11 9 -18 1 -26 -14 -14 -17 -11 -26 25 -6 23 -3 27 16 26 13
0 17 -3 10 -6z m2642 -102 c-26 -55 -49 -99 -51 -98 -4 4 27 78 64 155 46 92
35 48 -13 -57z m-24 74 c0 -15 -92 -197 -97 -191 -7 7 44 134 64 157 7 8 13
21 13 27 0 7 5 12 10 12 6 0 10 -2 10 -5z m74 -27 c-15 -49 -77 -172 -81 -161
-2 6 15 50 38 97 41 84 57 109 43 64z m1141 -126 c-11 -11 -128 95 -120 108 3
5 32 -16 65 -48 32 -31 57 -58 55 -60z m-3862 63 c16 -45 4 -66 -12 -22 -19
50 -22 67 -13 67 6 0 17 -20 25 -45z m2777 33 c0 -7 -9 -24 -20 -38 -11 -14
-20 -31 -20 -38 0 -22 -43 -98 -47 -84 -6 15 66 172 79 172 4 0 8 -6 8 -12z
m1050 -18 c18 -17 31 -32 29 -35 -7 -6 -69 45 -69 56 0 14 5 11 40 -21z
m-3786 4 c10 -25 -1 -29 -14 -5 -6 12 -7 21 -1 21 5 0 12 -7 15 -16z m2520 7
c3 -5 -1 -14 -9 -21 -13 -10 -15 -9 -15 9 0 21 14 28 24 12z m-2604 -78 c0 -2
-4 -3 -8 -3 -8 0 -32 58 -32 76 1 8 40 -64 40 -73z m131 47 c5 0 9 -4 9 -9 0
-6 -9 -9 -20 -8 -11 1 -20 8 -20 17 0 23 14 35 18 16 2 -9 8 -16 13 -16z
m2739 21 c0 -17 -41 -101 -49 -101 -10 0 31 110 42 110 4 0 7 -4 7 -9z m999
-90 c-6 -2 -16 3 -20 12 -5 8 -25 25 -44 37 -19 12 -33 26 -29 31 3 5 28 -10
55 -33 28 -23 45 -44 38 -47z m-976 57 c-5 -23 -5 -23 10 -3 14 18 17 18 31 5
15 -14 14 -20 -4 -58 -21 -44 -41 -59 -59 -47 -7 4 -6 16 4 35 18 34 18 40 5
40 -5 0 -10 -6 -10 -13 0 -19 -27 -53 -35 -45 -4 4 2 19 13 35 10 15 23 38 26
51 4 12 11 22 16 22 4 0 6 -10 3 -22z m-323 -28 c-6 -12 -14 -19 -17 -17 -2 3
1 15 7 27 6 12 14 19 17 17 2 -3 -1 -15 -7 -27z m245 13 c-4 -10 -10 -26 -12
-35 -4 -15 -23 -26 -23 -14 0 16 24 66 32 66 6 0 7 -8 3 -17z m995 -12 c19
-16 31 -33 27 -37 -4 -5 -24 9 -45 29 -44 44 -32 49 18 8z m-236 3 c14 -14 22
-34 13 -34 -2 0 -14 11 -27 25 -25 27 -12 35 14 9z m101 -29 c27 -24 46 -48
42 -52 -4 -4 -31 16 -60 45 -63 64 -49 69 18 7z m5 35 c0 -5 -4 -10 -9 -10 -6
0 -13 5 -16 10 -3 6 1 10 9 10 9 0 16 -4 16 -10z m98 -21 c36 -33 37 -51 2
-26 -25 17 -55 57 -43 57 4 0 23 -14 41 -31z m-223 -9 c20 -21 24 -30 13 -30
-8 0 -22 8 -30 18 -42 48 -28 59 17 12z m-4560 10 c3 -5 -1 -10 -10 -10 -9 0
-13 5 -10 10 3 6 8 10 10 10 2 0 7 -4 10 -10z m173 0 c20 -1 23 -3 12 -9 -8
-5 -26 -7 -40 -6 -14 1 -33 -2 -42 -7 -13 -6 -18 -5 -18 6 0 15 26 26 48 20 8
-2 26 -4 40 -4z m4482 -32 c0 -16 -22 -4 -39 22 l-16 24 28 -18 c15 -10 27
-23 27 -28z m110 7 c19 -19 30 -35 24 -35 -12 0 -24 10 -53 43 -36 40 -11 33
29 -8z m-4833 8 c-9 -9 -19 -14 -23 -11 -10 10 6 28 24 28 15 0 15 -1 -1 -17z
m4793 -3 c14 -11 19 -20 12 -20 -7 0 -22 9 -34 20 -28 26 -11 26 22 0z m-3650
-6 c0 -8 -4 -12 -10 -9 -5 3 -10 10 -10 16 0 5 5 9 10 9 6 0 10 -7 10 -16z
m3455 6 c3 -5 2 -10 -4 -10 -5 0 -13 5 -16 10 -3 6 -2 10 4 10 5 0 13 -4 16
-10z m-4555 -17 c0 -7 -4 -13 -9 -13 -5 0 -11 6 -14 13 -3 8 1 14 9 14 8 0 14
-6 14 -14z m80 -4 c-7 -11 -14 -19 -16 -16 -7 7 7 37 17 37 6 0 5 -9 -1 -21z
m150 6 c0 -8 -7 -15 -15 -15 -26 0 -18 20 13 29 1 1 2 -6 2 -14z m40 5 c0 -5
-7 -10 -16 -10 -8 0 -12 5 -9 10 3 6 10 10 16 10 5 0 9 -4 9 -10z m4285 -20
c21 -23 12 -39 -13 -24 -19 12 -29 44 -14 44 5 0 17 -9 27 -20z m-4215 0 c0
-5 -4 -10 -10 -10 -5 0 -10 5 -10 10 0 6 5 10 10 10 6 0 10 -4 10 -10z m4330
-5 c13 -16 12 -17 -20 -17 -11 0 -23 0 -26 1 -9 1 16 31 26 31 4 0 13 -7 20
-15z m-4493 -9 c4 -3 1 -12 -5 -18 -9 -9 -12 -8 -12 7 0 18 0 18 -15 -1 -10
-13 -14 -14 -15 -5 0 11 -3 11 -15 1 -19 -16 -32 -5 -17 13 12 14 66 16 79 3z
m53 -16 c-11 -20 -30 -28 -30 -12 0 11 22 32 32 32 5 0 4 -9 -2 -20z m4388 3
c6 -19 -25 -16 -32 3 -4 11 -1 14 11 12 9 -2 18 -9 21 -15z m-3451 -15 c-3 -8
-6 -5 -6 6 -1 11 2 17 5 13 3 -3 4 -12 1 -19z m-1087 2 c0 -12 -28 -25 -36
-17 -9 9 6 27 22 27 8 0 14 -5 14 -10z m1148 -13 c3 -13 -3 -16 -22 -15 -16 2
-26 8 -26 19 0 21 44 18 48 -4z m3697 -112 c-28 -89 -34 -99 -59 -89 -11 4
-14 14 -10 33 11 45 26 50 20 6 -5 -38 -5 -37 10 10 8 28 25 77 37 110 33 90
35 34 2 -70z m-1272 70 c-6 -16 -16 -19 -26 -8 -9 8 13 34 24 28 4 -3 6 -12 2
-20z m-2438 -5 c14 -5 25 -16 25 -23 0 -25 -58 -95 -112 -136 -29 -22 -62 -48
-74 -58 -27 -23 -94 -163 -94 -197 0 -34 -17 -33 -32 2 -7 15 -25 43 -40 63
-27 36 -37 69 -19 69 4 0 19 -20 32 -45 13 -25 27 -45 31 -45 4 0 -1 15 -12
33 -28 45 -25 58 5 22 29 -35 33 -25 6 13 -19 28 -71 127 -71 137 0 20 21 -6
54 -70 22 -41 44 -75 49 -75 5 0 3 10 -6 23 -8 12 -33 57 -56 99 -43 79 -54
121 -26 98 8 -7 15 -19 15 -26 0 -20 70 -157 77 -151 3 3 -7 28 -22 54 -22 40
-65 139 -65 152 0 2 7 1 15 -3 8 -3 15 -1 15 4 0 20 16 9 28 -17 6 -16 10 -19
8 -8 -2 11 -7 27 -10 36 -6 13 -1 17 17 17 21 0 30 -11 56 -71 17 -38 34 -67
38 -64 3 4 -9 34 -26 67 -18 33 -31 68 -28 78 2 11 16 -8 36 -52 17 -38 34
-67 37 -64 3 3 -7 31 -21 63 -14 32 -25 61 -25 65 0 9 119 29 147 24 12 -2 34
-9 48 -14z m2475 16 c0 -3 -4 -8 -10 -11 -5 -3 -10 -1 -10 4 0 6 5 11 10 11 6
0 10 -2 10 -4z m50 -15 c0 -5 -9 -19 -20 -32 -21 -26 -27 -10 -8 21 13 21 28
27 28 11z m-1 -61 c-22 -38 -39 -52 -39 -30 0 15 42 70 53 70 4 0 -2 -18 -14
-40z m66 -7 c-17 -41 -35 -64 -35 -46 0 20 30 83 40 83 6 0 3 -16 -5 -37z
m-2957 -91 c2 -7 -3 -12 -12 -12 -9 0 -16 7 -16 16 0 17 22 14 28 -4z m1418
-22 c10 0 14 -12 14 -40 0 -22 -4 -40 -10 -40 -5 0 -10 9 -10 19 0 11 -3 22
-8 25 -4 2 -8 -26 -9 -62 -1 -37 -2 -84 -2 -104 -1 -26 -5 -36 -13 -33 -9 4
-13 34 -12 106 1 55 -3 94 -7 87 -4 -7 -6 -45 -4 -85 3 -72 -8 -104 -23 -64
-4 10 -6 58 -4 106 3 69 6 85 17 81 8 -3 17 -1 21 5 3 6 13 8 21 5 8 -3 21 -6
29 -6z m52 -45 c-4 -56 -28 -58 -28 -2 0 24 3 47 7 51 13 13 24 -12 21 -49z
m42 3 c-2 -75 2 -83 9 -15 6 61 27 80 25 22 -1 -19 3 -32 7 -29 5 3 9 21 9 40
0 55 25 37 27 -20 2 -37 -1 -47 -12 -42 -42 16 -97 -94 -77 -153 6 -16 7 -33
2 -37 -4 -5 -10 -18 -12 -29 -2 -12 -12 -20 -26 -21 -19 -1 -22 4 -22 37 0 47
17 52 23 7 3 -26 4 -22 5 14 2 39 -1 46 -14 41 -13 -5 -15 3 -13 51 2 57 22
93 38 68 4 -6 5 18 3 53 -4 56 -2 65 13 65 13 0 16 -9 15 -52z m1274 39 c4 4
4 0 1 -10 -4 -9 5 -66 20 -127 15 -61 25 -113 22 -116 -12 -12 -27 8 -27 34 0
15 -11 72 -25 126 -29 115 -29 112 -12 97 8 -6 17 -8 21 -4z m1216 3 c0 -5 -4
-10 -10 -10 -5 0 -10 5 -10 10 0 6 5 10 10 10 6 0 10 -4 10 -10z m-3985 -28
c0 -18 -20 -15 -23 4 -3 10 1 15 10 12 7 -3 13 -10 13 -16z m2750 -66 c8 -38
13 -71 10 -74 -6 -6 -10 6 -30 84 -18 72 -18 81 -6 69 5 -6 17 -41 26 -79z
m65 74 c0 -5 -4 -10 -10 -10 -5 0 -10 5 -10 10 0 6 5 10 10 10 6 0 10 -4 10
-10z m-2530 -42 c-7 -18 -20 -51 -30 -73 -10 -22 -26 -60 -35 -85 -10 -25 -21
-55 -26 -68 -5 -13 -14 -20 -19 -17 -6 4 -5 16 4 33 7 15 19 45 26 67 15 51
82 186 88 180 3 -2 -1 -19 -8 -37z m-20 26 c0 -15 -44 -77 -48 -66 -4 14 26
72 38 72 6 0 10 -3 10 -6z m2393 -26 c3 -13 12 -54 21 -92 9 -38 18 -77 21
-87 4 -11 3 -19 -2 -19 -9 0 -63 185 -63 214 0 23 16 12 23 -16z m57 -10 c6
-24 20 -76 31 -116 22 -82 23 -92 9 -92 -5 0 -12 23 -16 50 -4 28 -11 53 -15
56 -12 7 -11 -19 1 -52 6 -16 7 -31 2 -36 -5 -5 -13 12 -19 41 -6 32 -6 52 -1
53 6 2 6 19 0 43 -20 82 -22 95 -13 95 6 0 15 -19 21 -42z m-2401 -2 c-11 -24
-29 -36 -29 -18 0 12 31 54 36 49 3 -2 -1 -16 -7 -31z m2371 14 c0 -5 -2 -10
-4 -10 -3 0 -8 5 -11 10 -3 6 -1 10 4 10 6 0 11 -4 11 -10z m150 -40 c8 -19
21 -41 30 -47 12 -10 12 -14 2 -21 -9 -6 -11 -18 -6 -35 3 -16 2 -27 -4 -27
-12 0 -23 32 -28 81 -2 20 -8 49 -14 63 -5 15 -10 30 -10 34 0 13 17 -14 30
-48z m20 17 c0 -5 -4 -5 -10 -2 -5 3 -10 14 -10 23 0 15 2 15 10 2 5 -8 10
-19 10 -23z m-2820 -14 c0 -13 -3 -13 -15 -3 -8 7 -15 19 -15 27 0 13 3 13 15
3 8 -7 15 -19 15 -27z m306 2 c-4 -14 -11 -25 -16 -25 -13 0 -13 16 1 42 14
26 23 16 15 -17z m44 28 c0 -20 -100 -258 -109 -261 -6 -2 -11 -1 -11 1 0 7
64 173 86 225 17 37 34 55 34 35z m2195 -44 c7 -26 14 -38 17 -29 9 25 18 6
39 -75 21 -87 23 -109 9 -100 -5 3 -10 17 -10 30 0 13 -4 34 -9 47 -5 13 -13
37 -17 53 -3 17 -8 25 -11 19 -2 -7 5 -47 16 -90 11 -43 18 -81 15 -86 -11
-17 -24 -7 -24 20 0 15 -10 65 -21 112 -12 47 -25 100 -29 118 -6 23 -5 32 3
29 6 -2 16 -23 22 -48z m64 -31 c12 -46 26 -93 31 -106 12 -28 13 -62 2 -62
-4 0 -16 37 -26 82 -10 45 -25 97 -32 115 -16 38 -18 53 -5 53 5 0 18 -37 30
-82z m165 17 c4 -27 4 -34 -3 -20 -13 31 -24 93 -12 75 5 -8 12 -33 15 -55z
m-270 38 c19 -59 56 -221 56 -242 0 -44 -11 -14 -41 111 -16 67 -32 129 -34
136 -2 6 0 12 5 12 5 0 11 -8 14 -17z m996 7 c0 -5 -7 -10 -15 -10 -8 0 -15 5
-15 10 0 6 7 10 15 10 8 0 15 -4 15 -10z m-4020 -20 c0 -6 -25 -22 -55 -36
-52 -23 -57 -24 -72 -8 -16 16 -16 16 2 11 11 -3 43 5 70 18 28 13 51 24 53
24 1 1 2 -4 2 -9z m922 -17 c-5 -10 -26 -70 -48 -133 -36 -108 -49 -134 -65
-125 -6 4 86 245 105 273 12 19 19 7 8 -15z m22 -51 c-42 -109 -55 -153 -52
-163 2 -6 23 46 47 115 24 69 47 126 52 126 13 0 13 0 -37 -151 -46 -137 -63
-172 -65 -127 0 13 -3 17 -6 11 -4 -11 -33 -19 -33 -10 0 8 88 256 95 266 3 6
10 9 15 6 5 -3 -3 -36 -16 -73z m-894 64 c0 -3 -4 -8 -10 -11 -5 -3 -10 -1
-10 4 0 6 5 11 10 11 6 0 10 -2 10 -4z m617 -51 c-20 -42 -40 -39 -27 5 13 44
20 54 33 41 8 -8 6 -21 -6 -46z m223 52 c0 -19 -92 -252 -104 -264 -12 -12 -6
36 9 69 8 18 28 70 45 116 18 45 36 82 41 82 5 0 9 -1 9 -3z m1001 -72 c-1
-33 -5 -63 -7 -67 -2 -3 0 -9 6 -13 10 -6 14 -58 5 -67 -3 -3 -17 -3 -30 0
-21 4 -25 10 -25 38 0 19 5 34 10 34 6 0 10 -14 10 -32 0 -17 3 -29 6 -26 3 3
6 49 7 102 1 55 6 95 11 93 6 -2 9 -30 7 -62z m2169 49 c0 -9 -5 -14 -12 -12
-18 6 -21 28 -4 28 9 0 16 -7 16 -16z m-3280 -2 c0 -4 -4 -12 -8 -17 -5 -6
-21 -41 -37 -80 -29 -72 -45 -99 -45 -76 0 11 22 71 56 149 12 29 34 44 34 24z
m-796 -41 c-71 -39 -114 -57 -114 -48 0 3 21 15 46 27 34 17 42 25 32 32 -9 6
-6 7 9 3 14 -4 32 0 45 9 12 9 29 16 38 16 8 0 -17 -18 -56 -39z m3399 19 c3
-11 1 -20 -4 -20 -5 0 -9 9 -9 20 0 11 2 20 4 20 2 0 6 -9 9 -20z m747 10 c0
-6 -11 -9 -25 -7 -37 5 -42 17 -7 17 18 0 32 -5 32 -10z m-4280 -10 c0 -5 -5
-10 -11 -10 -5 0 -8 -4 -4 -9 3 -5 1 -12 -4 -15 -10 -6 -22 29 -13 38 9 10 32
7 32 -4z m840 -10 c-6 -11 -12 -20 -14 -20 -2 0 -2 9 1 20 3 11 9 20 15 20 5
0 4 -9 -2 -20z m85 -62 c-18 -46 -35 -91 -38 -100 -8 -22 -27 -24 -27 -3 0 9
14 42 30 75 17 33 30 65 30 73 0 14 19 37 31 37 3 0 -8 -37 -26 -82z m975 51
c0 -5 -9 -9 -20 -9 -22 0 -23 1 -14 24 5 13 9 14 20 5 8 -6 14 -15 14 -20z
m2220 10 c0 -5 -4 -9 -10 -9 -5 0 -10 7 -10 16 0 8 5 12 10 9 6 -3 10 -10 10
-16z m-3901 7 c-2 -2 -37 -21 -77 -41 -40 -21 -70 -40 -68 -42 2 -3 37 12 76
32 40 19 77 34 83 32 10 -3 -21 -19 -199 -103 -43 -21 -82 -40 -86 -42 -5 -2
-8 3 -8 12 0 9 8 16 18 16 9 0 24 5 32 11 12 9 11 10 -7 6 -13 -3 -26 -1 -29
4 -3 5 -1 9 5 9 5 0 8 11 5 24 -3 19 3 29 28 44 39 23 93 38 83 22 -3 -5 -10
-10 -15 -10 -4 0 -28 -12 -51 -26 -24 -14 -36 -23 -26 -20 19 6 24 -10 5 -17
-9 -4 -8 -5 2 -6 8 0 58 22 110 49 78 40 138 63 119 46z m-269 -21 c0 -8 0
-18 1 -22 0 -4 -4 -9 -10 -11 -6 -2 -11 8 -11 22 0 14 5 26 10 26 6 0 10 -7
10 -15z m4140 5 c0 -5 -6 -10 -12 -11 -7 0 -3 -5 9 -11 19 -9 26 -7 42 13 17
20 20 21 21 7 0 -28 -41 -69 -62 -62 -13 4 -16 1 -12 -9 3 -10 -19 -29 -73
-60 -44 -26 -89 -58 -101 -72 -12 -14 -27 -25 -33 -25 -26 0 24 90 82 148 29
29 38 33 69 28 33 -5 34 -4 15 11 l-20 15 20 -5 c11 -2 29 -8 40 -12 19 -6 19
-6 2 8 -10 8 -15 21 -11 31 7 18 24 22 24 6z m177 -5 c0 -8 -6 -15 -14 -15 -7
0 -13 7 -13 15 0 8 6 15 13 15 8 0 14 -7 14 -15z m-2116 -22 c0 -11 3 -13 6
-5 6 16 23 15 23 -2 0 -9 7 -12 20 -9 21 6 25 -3 11 -26 -12 -19 -81 14 -81
40 0 24 20 25 21 2z m-1331 -33 c-11 -37 -19 -50 -31 -50 -10 0 -3 43 13 73
14 27 28 10 18 -23z m2587 8 c-3 -7 -5 -2 -5 12 0 14 2 19 5 13 2 -7 2 -19 0
-25z m-1475 10 c0 -7 2 -17 3 -23 2 -5 3 -22 4 -37 1 -35 21 -37 21 -3 0 14 4
25 10 25 5 0 8 -17 7 -37 l-2 -38 -64 -3 c-45 -3 -66 0 -72 10 -14 21 -10 48
6 48 8 0 15 -7 15 -15 0 -8 5 -15 10 -15 6 0 10 6 10 14 0 23 -11 46 -20 41
-18 -11 -22 19 -5 32 24 16 74 17 77 1z m2397 -17 c36 -20 13 -32 -27 -15 -20
9 -43 18 -49 21 -7 3 -11 9 -8 13 6 9 50 -1 84 -19z m-859 9 c0 -5 -2 -10 -4
-10 -3 0 -8 5 -11 10 -3 6 -1 10 4 10 6 0 11 -4 11 -10z m-2690 -24 c0 -16
-18 -31 -27 -22 -8 8 5 36 17 36 5 0 10 -6 10 -14z m3490 -6 c-8 -5 -10 -10
-5 -10 6 0 3 -4 -4 -9 -12 -8 -9 -11 11 -16 15 -4 32 -4 37 0 6 3 11 -1 11
-11 0 -12 -6 -15 -22 -11 -19 5 -21 4 -8 -6 19 -15 19 -56 0 -83 -34 -48 -70
-84 -82 -84 -8 0 -19 -5 -26 -12 -18 -18 -16 22 3 49 8 12 20 44 26 73 9 43
14 51 30 47 10 -3 17 -1 13 4 -3 5 1 9 8 9 8 1 7 5 -5 14 -25 19 -13 56 18 56
6 0 3 -5 -5 -10z m-2010 -48 c0 -34 -15 -59 -24 -43 -4 6 -18 11 -32 11 -18 0
-24 6 -25 23 -1 16 -2 18 -6 5 -2 -10 -9 -18 -14 -18 -5 0 -9 8 -10 18 -1 11
-4 9 -9 -8 -8 -25 -8 -24 -9 5 l-1 30 65 2 c64 1 65 1 65 -25z m-2036 -328 c9
-3 16 -10 16 -15 0 -14 -26 -10 -40 6 -13 16 -3 20 24 9z"/>
<path d="M1521 904 c1 -21 16 -47 21 -38 4 5 0 18 -8 29 -8 10 -14 15 -13 9z"/>
<path d="M1560 889 c0 -5 5 -7 10 -4 6 3 10 8 10 11 0 2 -4 4 -10 4 -5 0 -10
-5 -10 -11z"/>
<path d="M1406 860 c15 -60 74 -157 74 -122 0 6 -5 14 -11 18 -6 3 -24 34 -40
68 -16 33 -26 50 -23 36z"/>
<path d="M1510 848 c0 -9 5 -20 10 -23 13 -8 13 5 0 25 -8 13 -10 13 -10 -2z"/>
<path d="M1354 825 c5 -33 65 -149 73 -141 3 3 -9 30 -27 61 -18 31 -36 68
-41 83 l-9 27 4 -30z"/>
<path d="M1416 759 c14 -28 27 -49 29 -47 6 6 -39 98 -48 98 -4 0 4 -23 19
-51z"/>
<path d="M2757 583 c-3 -16 -1 -32 4 -37 5 -6 9 4 9 27 0 44 -6 48 -13 10z"/>
<path d="M2582 460 c0 -14 2 -19 5 -12 2 6 2 18 0 25 -3 6 -5 1 -5 -13z"/>
<path d="M505 2004 c54 -46 92 -57 144 -43 34 10 46 10 49 1 2 -7 8 -12 13
-12 5 0 4 10 -3 23 -7 12 -11 30 -9 40 3 24 -14 21 -32 -5 -12 -20 -22 -23
-66 -21 -33 1 -62 10 -80 23 -41 28 -52 24 -16 -6z"/>
<path d="M1033 1980 c0 -30 2 -43 4 -27 2 15 2 39 0 55 -2 15 -4 2 -4 -28z"/>
<path d="M4673 1925 c0 -44 2 -61 4 -37 2 23 2 59 0 80 -2 20 -4 1 -4 -43z"/>
<path d="M4621 1924 c0 -11 3 -14 6 -6 3 7 2 16 -1 19 -3 4 -6 -2 -5 -13z"/>
<path d="M711 1898 c-1 -46 7 -68 25 -68 10 0 14 13 12 53 -1 43 -2 45 -5 15
-2 -21 -8 -38 -13 -38 -5 0 -7 6 -4 13 2 7 0 24 -5 38 -9 22 -10 21 -10 -13z"/>
<path d="M4693 1914 c-3 -8 -1 -20 6 -27 8 -8 11 -4 11 16 0 30 -7 35 -17 11z"/>
<path d="M963 1855 c0 -33 2 -45 4 -27 2 18 2 45 0 60 -2 15 -4 0 -4 -33z"/>
<path d="M4270 1896 c0 -8 5 -18 10 -21 6 -3 10 3 10 14 0 12 -4 21 -10 21 -5
0 -10 -6 -10 -14z"/>
<path d="M1041 1884 c0 -11 3 -14 6 -6 3 7 2 16 -1 19 -3 4 -6 -2 -5 -13z"/>
<path d="M1365 1890 c-3 -5 -1 -10 4 -10 6 0 11 5 11 10 0 6 -2 10 -4 10 -3 0
-8 -4 -11 -10z"/>
<path d="M4315 1869 c-4 -6 -5 -12 -2 -15 2 -3 7 2 10 11 7 17 1 20 -8 4z"/>
<path d="M4867 1845 c-3 -22 -2 -58 2 -80 9 -40 9 -40 10 -7 0 18 5 31 10 28
5 -3 11 17 13 44 1 28 0 50 -4 50 -5 0 -9 -17 -9 -37 l-2 -38 -6 40 -7 40 -7
-40z"/>
<path d="M931 1844 c0 -11 3 -14 6 -6 3 7 2 16 -1 19 -3 4 -6 -2 -5 -13z"/>
<path d="M4275 1830 c10 -97 25 -133 25 -62 0 22 3 48 7 58 4 11 3 15 -5 10
-6 -3 -15 2 -21 11 -8 14 -9 11 -6 -17z"/>
<path d="M4723 1820 c0 -25 2 -35 4 -22 2 12 2 32 0 45 -2 12 -4 2 -4 -23z"/>
<path d="M768 1813 c5 -59 10 -63 11 -10 1 26 -3 47 -7 47 -4 0 -6 -17 -4 -37z"/>
<path d="M793 1775 c0 -44 2 -61 4 -37 2 23 2 59 0 80 -2 20 -4 1 -4 -43z"/>
<path d="M4745 1840 c3 -5 8 -10 11 -10 2 0 4 5 4 10 0 6 -5 10 -11 10 -5 0
-7 -4 -4 -10z"/>
<path d="M4841 1798 c1 -55 5 -50 11 15 2 20 0 37 -4 37 -4 0 -7 -24 -7 -52z"/>
<path d="M4771 1814 c0 -11 3 -14 6 -6 3 7 2 16 -1 19 -3 4 -6 -2 -5 -13z"/>
<path d="M4790 1815 c0 -19 18 -38 29 -31 6 4 11 12 11 17 0 6 -5 7 -11 3 -6
-3 -15 0 -20 7 -5 8 -9 10 -9 4z"/>
<path d="M816 1778 c-8 -30 -8 -63 0 -55 8 7 17 77 10 77 -2 0 -6 -10 -10 -22z"/>
<path d="M4750 1785 c0 -8 7 -15 15 -15 8 0 15 4 15 9 0 5 -7 11 -15 15 -9 3
-15 0 -15 -9z"/>
<path d="M4180 1760 c0 -5 4 -10 9 -10 6 0 13 5 16 10 3 6 -1 10 -9 10 -9 0
-16 -4 -16 -10z"/>
<path d="M1446 1753 c-11 -11 -6 -23 9 -23 8 0 15 4 15 9 0 13 -16 22 -24 14z"/>
<path d="M5060 1508 c0 -13 -3 -34 -6 -48 -5 -19 -4 -22 5 -14 17 15 27 84 12
84 -6 0 -11 -10 -11 -22z"/>
<path d="M585 1491 c-8 -14 15 -81 28 -81 5 0 6 8 2 18 -4 9 -9 28 -12 42 -5
30 -9 34 -18 21z"/>
<path d="M1280 1175 c0 -8 5 -15 10 -15 6 0 10 7 10 15 0 8 -4 15 -10 15 -5 0
-10 -7 -10 -15z"/>
<path d="M1321 1158 c5 -17 14 -36 20 -42 9 -8 10 -6 4 9 -4 11 -10 30 -12 43
-3 12 -9 22 -13 22 -5 0 -4 -14 1 -32z"/>
<path d="M1377 1184 c-3 -3 3 -26 14 -51 10 -24 19 -50 19 -56 0 -18 48 -114
49 -99 1 7 -4 23 -10 34 -6 11 -23 56 -38 99 -15 44 -30 76 -34 73z"/>
<path d="M1301 1140 c0 -8 10 -44 24 -80 13 -36 24 -56 24 -45 0 24 -47 147
-48 125z"/>
<path d="M4490 1105 c0 -3 5 -13 11 -23 8 -13 5 -28 -17 -66 -15 -27 -36 -51
-46 -54 -28 -7 -22 -20 19 -37 40 -17 52 -13 33 10 -11 13 -8 25 15 70 29 58
34 62 53 43 14 -14 27 -5 17 11 -7 13 -85 54 -85 46z"/>
<path d="M1350 1088 c0 -9 5 -20 10 -23 13 -8 13 5 0 25 -8 13 -10 13 -10 -2z"/>
<path d="M1080 1065 c-26 -14 -26 -30 0 -30 20 0 60 -74 60 -113 0 -33 0 -33
28 -18 15 8 44 22 65 32 37 16 46 39 31 78 -10 26 -24 8 -18 -23 5 -24 2 -29
-19 -35 -14 -3 -32 -9 -40 -12 -19 -7 -71 89 -64 117 6 22 -8 24 -43 4z"/>
<path d="M1379 1004 c8 -19 17 -31 19 -26 4 14 -16 62 -27 62 -4 0 -1 -16 8
-36z"/>
<path d="M4616 1016 c8 -33 -33 -116 -57 -116 -12 0 -16 -5 -13 -15 4 -8 12
-15 20 -15 8 0 23 -9 34 -20 11 -11 28 -20 38 -20 10 0 23 -5 29 -11 8 -8 17
-4 32 12 11 13 21 26 21 29 0 16 -14 18 -32 6 -34 -24 -111 12 -87 41 16 18
39 16 39 -3 0 -27 28 2 35 37 7 33 17 41 38 34 9 -4 12 -15 9 -31 -5 -29 14
-32 23 -3 7 20 -18 59 -37 59 -5 0 -28 9 -50 20 -52 25 -50 25 -42 -4z m50
-31 c6 -16 -12 -45 -27 -45 -10 0 -12 44 -2 53 11 11 23 8 29 -8z"/>
<path d="M1300 1021 c0 -6 5 -13 10 -16 6 -3 10 1 10 9 0 9 -4 16 -10 16 -5 0
-10 -4 -10 -9z"/>
<path d="M973 1008 c-39 -13 -47 -44 -10 -34 19 4 26 0 37 -22 7 -15 18 -39
26 -53 7 -14 10 -35 7 -47 -5 -21 -4 -22 28 -8 40 17 49 36 17 36 -18 1 -28
12 -49 59 -20 43 -24 62 -16 70 13 13 4 13 -40 -1z"/>
<path d="M1356 975 c4 -8 8 -15 10 -15 2 0 4 7 4 15 0 8 -4 15 -10 15 -5 0 -7
-7 -4 -15z"/>
<path d="M870 945 c0 -39 15 -48 22 -12 5 27 0 47 -13 47 -5 0 -9 -16 -9 -35z"/>
<path d="M4796 931 c4 -17 0 -41 -10 -59 -9 -17 -16 -38 -16 -47 0 -24 60 -55
108 -55 40 0 42 2 42 29 0 38 19 93 38 108 20 16 16 20 -30 28 -39 7 -52 -6
-23 -22 12 -7 12 -16 1 -58 -13 -53 -30 -64 -83 -50 -23 5 -25 9 -19 46 7 46
25 79 43 79 22 0 14 17 -9 24 -42 11 -48 8 -42 -23z"/>
<path d="M370 945 c0 -12 33 -85 37 -81 7 7 -19 86 -29 86 -4 0 -8 -2 -8 -5z"/>
<path d="M411 928 c0 -7 9 -31 20 -53 11 -22 17 -31 14 -20 -4 11 -9 32 -12
48 -6 28 -24 49 -22 25z"/>
<path d="M5087 830 c-21 -56 -36 -107 -34 -113 2 -6 20 35 41 91 21 57 36 107
34 113 -2 6 -21 -35 -41 -91z"/>
<path d="M3940 916 c0 -16 20 -44 37 -50 13 -5 11 0 -7 21 -14 15 -26 30 -27
32 -2 2 -3 1 -3 -3z"/>
<path d="M516 888 c4 -13 20 -66 36 -118 15 -52 33 -99 38 -104 14 -14 13 -11
-19 85 -16 48 -33 103 -36 123 -4 20 -12 36 -17 36 -5 0 -6 -10 -2 -22z"/>
<path d="M632 900 c3 -8 15 -46 28 -83 12 -38 24 -66 27 -63 7 6 -37 138 -50
151 -7 7 -8 5 -5 -5z"/>
<path d="M700 890 c-17 -17 -18 -25 -7 -56 9 -26 50 -47 65 -32 14 14 57 6 57
-12 0 -8 -16 -23 -35 -33 -34 -17 -35 -17 -53 4 -10 12 -20 20 -23 17 -7 -8
26 -88 37 -88 5 0 6 7 2 16 -5 13 -2 15 15 9 14 -4 22 -2 22 6 0 9 3 9 14 0
10 -9 15 -7 19 6 4 10 12 25 18 34 7 9 9 27 5 42 -6 24 -11 26 -64 29 -49 3
-57 6 -57 23 0 24 48 34 71 14 19 -15 28 -6 19 21 -5 17 -13 20 -48 18 -23 -2
-49 -10 -57 -18z"/>
<path d="M600 893 c0 -4 5 -15 10 -23 8 -13 10 -13 10 2 0 9 -4 20 -10 23 -5
3 -10 3 -10 -2z"/>
<path d="M5054 843 c-12 -32 -24 -66 -29 -75 -4 -11 -3 -18 3 -18 6 0 19 26
30 58 11 31 23 65 27 75 4 9 3 17 -1 17 -5 0 -18 -26 -30 -57z"/>
<path d="M555 865 c10 -51 63 -211 64 -190 0 11 -15 65 -35 120 -19 55 -32 87
-29 70z"/>
<path d="M621 844 c-1 -6 8 -37 19 -69 11 -32 20 -66 20 -76 0 -10 5 -21 11
-25 8 -4 9 2 5 22 -9 39 -55 162 -55 148z"/>
<path d="M4295 770 c-3 -5 -1 -10 4 -10 6 0 11 5 11 10 0 6 -2 10 -4 10 -3 0
-8 -4 -11 -10z"/>
<path d="M400 760 c0 -8 5 -22 10 -30 9 -13 10 -13 10 0 0 8 -5 22 -10 30 -9
13 -10 13 -10 0z"/>
<path d="M4266 710 c-9 -17 -13 -30 -8 -30 9 0 35 50 29 56 -2 2 -11 -10 -21
-26z"/>
<path d="M690 716 c0 -9 5 -16 10 -16 6 0 10 4 10 9 0 6 -4 13 -10 16 -5 3
-10 -1 -10 -9z"/>
<path d="M2960 696 c0 -14 0 -28 0 -31 0 -3 3 -4 7 -2 10 3 10 47 1 53 -4 3
-8 -6 -8 -20z"/>
<path d="M2921 694 c0 -11 3 -14 6 -6 3 7 2 16 -1 19 -3 4 -6 -2 -5 -13z"/>
<path d="M3000 655 c0 -8 -4 -15 -10 -15 -12 0 -13 -27 -1 -32 5 -2 4 -35 -3
-80 l-12 -76 38 -13 c42 -13 58 -8 39 15 -8 9 -10 29 -6 53 3 21 8 53 11 71 7
46 34 43 35 -5 1 -22 3 -29 6 -18 3 11 9 24 14 30 15 16 10 45 -8 46 -10 1
-22 2 -28 4 -5 1 -23 3 -39 3 -21 2 -27 6 -22 17 3 8 1 15 -4 15 -6 0 -10 -7
-10 -15z m26 -106 c-8 -69 -15 -91 -26 -84 -13 8 7 145 22 145 7 0 8 -20 4
-61z"/>
<path d="M2422 640 c0 -14 2 -19 5 -12 2 6 2 18 0 25 -3 6 -5 1 -5 -13z"/>
<path d="M2263 613 c-35 -5 -47 -33 -14 -33 32 0 44 -112 14 -129 -10 -5 -15
-12 -12 -16 8 -7 139 24 157 38 14 11 16 47 2 47 -5 0 -10 -7 -10 -15 0 -8 -8
-15 -19 -15 -10 0 -32 -3 -48 -6 -30 -6 -30 -5 -37 46 -4 33 -3 57 3 63 13 13
14 28 4 25 -5 0 -23 -3 -40 -5z"/>
<path d="M1872 571 c-6 -17 -7 -31 -3 -31 10 0 25 50 18 57 -3 2 -9 -10 -15
-26z"/>
<path d="M3700 590 c0 -5 5 -10 10 -10 6 0 10 5 10 10 0 6 -4 10 -10 10 -5 0
-10 -4 -10 -10z"/>
<path d="M2037 572 c-21 -4 -23 -22 -3 -22 21 0 26 -116 6 -135 -12 -13 -12
-15 7 -15 12 0 25 -5 29 -11 5 -8 10 -6 16 5 7 13 5 21 -7 29 -23 17 -9 47 22
47 26 0 64 17 74 32 11 16 -3 58 -22 69 -17 9 -78 9 -122 1z m101 -18 c14 -4
22 -14 22 -29 0 -17 -7 -24 -31 -29 -53 -10 -59 -8 -59 22 0 42 14 50 68 36z"/>
<path d="M1891 493 c-34 -116 -34 -119 -25 -110 12 11 63 187 55 187 -4 0 -17
-35 -30 -77z"/>
<path d="M3334 523 c-10 -20 -25 -49 -33 -65 -8 -15 -21 -28 -28 -28 -17 0
-17 -24 0 -37 6 -6 27 -13 45 -16 l32 -7 -24 27 c-20 22 -22 29 -13 45 8 13
21 18 41 16 32 -3 61 -37 39 -45 -7 -3 -13 -11 -13 -19 0 -10 12 -14 40 -14
22 0 40 5 40 10 0 6 -6 10 -13 10 -8 0 -25 34 -41 80 -16 44 -34 80 -40 80 -7
0 -21 -16 -32 -37z m42 -14 c8 -14 -11 -33 -25 -25 -11 7 -4 36 9 36 5 0 12
-5 16 -11z"/>
<path d="M3727 505 c6 -42 10 -51 18 -43 3 2 -2 22 -10 44 l-15 39 7 -40z"/>
<path d="M3080 483 c0 -43 6 -41 13 5 3 17 1 32 -4 32 -5 0 -9 -16 -9 -37z"/>
<path d="M3767 475 c3 -27 10 -59 15 -70 11 -26 -1 70 -12 99 -6 14 -7 3 -3
-29z"/>
<path d="M3802 465 c0 -16 4 -41 8 -55 l8 -25 0 25 c0 14 -4 39 -8 55 l-8 30
0 -30z"/>
<path d="M4454 194 c-8 -19 -17 -48 -21 -65 -5 -27 -3 -29 23 -29 49 1 74 31
73 87 l0 48 -14 -43 c-12 -39 -37 -71 -57 -72 -14 0 -8 35 12 73 11 20 15 37
10 37 -6 0 -18 -16 -26 -36z"/>
<path d="M4787 143 c-4 -3 -7 -11 -7 -17 0 -6 5 -5 12 2 6 6 9 14 7 17 -3 3
-9 2 -12 -2z"/>
</g>
</svg>
